<?xml version="1.0" encoding="utf-8"?>
<!-- Generator: Adobe Illustrator 25.4.1, SVG Export Plug-In . SVG Version: 6.00 Build 0)  -->
<svg version="1.1" id="Layer_1" xmlns="http://www.w3.org/2000/svg" xmlns:xlink="http://www.w3.org/1999/xlink" x="0px" y="0px"
	 viewBox="0 0 193.1 78" style="enable-background:new 0 0 193.1 78;" xml:space="preserve">
<style type="text/css">
	.st0{fill:#006982;}
</style>
<g id="Layout">
	<g id="BDIU---BDIU" transform="translate(-133.000000, -1885.000000)">
		<g id="e_x2F_footer" transform="translate(-1.000000, 1712.000000)">
			<g id="bdiu-logo-subline" transform="translate(134.092361, 173.000000)">
				<path id="Shape" class="st0" d="M65.4,0c3.4,0,6.1,0.9,8.3,2.6c2,1.6,3.2,4,3.2,6.6c0,1.6-0.4,3.1-1.3,4.4
					c-1,1.4-2.3,2.4-3.9,3.1V17c2.3,0.4,4.5,1.7,6,3.4c1.4,1.7,2.2,3.8,2.1,6c0,1.9-0.5,3.8-1.6,5.5c-1.1,1.6-2.6,2.9-4.3,3.6
					c-2.1,0.9-4.3,1.3-6.5,1.2H51.9V0H65.4z M63.5,15.3c1.9,0,3.4-0.4,4.4-1.3c1.1-0.9,1.7-2.3,1.7-3.7c0.1-1.3-0.5-2.6-1.5-3.4
					c-1.1-0.9-2.5-1.3-4-1.2H59v9.7H63.5z M65.2,31.2c2.4,0,4.2-0.5,5.5-1.4c1.2-0.9,1.9-2.4,1.8-4c0.1-1.5-0.6-2.9-1.8-3.7
					c-1.2-0.9-2.9-1.4-4.9-1.4H59v10.4H65.2z M101.5,0c3.5-0.1,7.1,0.7,10.2,2.3c2.9,1.5,5.3,3.8,7,6.6c1.7,2.9,2.5,6.2,2.5,9.5
					c0.1,3.4-0.8,6.7-2.5,9.6c-1.7,2.8-4.1,5-7.1,6.5c-3.3,1.6-6.9,2.4-10.5,2.3h-15V0H101.5z M100.7,31.2c3.9,0,7.1-1.2,9.5-3.5
					s3.6-5.5,3.6-9.3c0-4-1.2-7.1-3.6-9.4s-5.6-3.5-9.7-3.5h-7.3v25.7H100.7z M135.3,0v36.8h-7.1V0H135.3z M151.3,0v21.4
					c-0.1,1.8,0.3,3.6,1,5.2c0.7,1.4,1.9,2.5,3.2,3.2c1.6,0.9,3.4,1.3,5.2,1.3c1.9,0.1,3.8-0.4,5.5-1.2c1.4-0.7,2.6-1.9,3.3-3.3
					c0.7-1.4,1.1-3.3,1.1-5.7V0h7.1v21.9c0,4.9-1.5,8.8-4.5,11.4c-3,2.7-7.2,4-12.6,4c-3.1,0.1-6.1-0.6-8.9-1.8
					c-2.4-1.1-4.4-3-5.7-5.3c-1.4-2.5-2-5.3-2-8.1V0H151.3z M-0.1,25.8v11h12C11.9,31.8,7.7,25.8-0.1,25.8z M21.1,36.8h15.6V21.6
					c-4.1-0.1-8,1.5-11,4.3S21.1,32.7,21.1,36.8z M-0.1,0v18.4l0,0c8.7,0,14.3,5.9,16.5,12.4c2.3-8.4,9.2-16.5,20.3-16.5V0H-0.1z
					 M14.9,17.6c-3.6,0-6.4-2.9-6.4-6.4s2.9-6.4,6.4-6.4s6.4,2.9,6.4,6.4c0,1.7-0.7,3.3-1.9,4.6S16.6,17.6,14.9,17.6z M4,48.8
					c0.9,0,1.8,0.2,2.5,0.8c0.6,0.5,1,1.2,1,2c0,0.5-0.1,0.9-0.4,1.3c-0.3,0.4-0.7,0.7-1.2,0.9v0.1c0.7,0.1,1.3,0.5,1.8,1
					c0.4,0.5,0.7,1.2,0.6,1.8c0,0.6-0.2,1.2-0.5,1.7c-0.3,0.5-0.8,0.9-1.3,1.1c-0.6,0.3-1.3,0.4-2,0.4h-4.7V48.8H4z M3.4,53.4
					c0.5,0,1-0.1,1.4-0.4c0.3-0.3,0.5-0.7,0.5-1.1c0-0.4-0.2-0.8-0.5-1c-0.3-0.3-0.8-0.4-1.2-0.4H2.1v2.9L3.4,53.4z M3.9,58.2
					c0.6,0,1.2-0.1,1.7-0.4c0.4-0.3,0.6-0.7,0.6-1.2c0-0.4-0.2-0.9-0.6-1.1c-0.4-0.3-1-0.4-1.5-0.4H2.1v3.1L3.9,58.2z M12.1,52.5
					v4.6c0,0.4,0.1,0.8,0.4,1.1c0.2,0.3,0.6,0.4,1,0.4c0.3,0,0.7-0.1,1-0.3c0.3-0.2,0.6-0.5,0.7-0.9v-4.9h1.9v7.4h-1.9v-1
					c-0.6,0.7-1.4,1.1-2.3,1.2c-0.7,0-1.4-0.3-1.9-0.8c-0.5-0.6-0.8-1.3-0.7-2v-4.8H12.1z M23.7,52.3c0.7,0,1.4,0.3,1.9,0.8
					c0.5,0.6,0.7,1.3,0.7,2.1v4.7h-2v-4.5c0-0.4-0.1-0.8-0.3-1.2c-0.2-0.3-0.6-0.4-0.9-0.4c-0.3,0-0.6,0.1-0.9,0.3
					c-0.3,0.2-0.6,0.5-0.9,0.9v4.9h-2v-7.4h2v1c0.3-0.4,0.7-0.7,1.1-0.9C22.8,52.4,23.3,52.3,23.7,52.3L23.7,52.3z M33.6,52.6v-3.9
					h2v11.1h-3.5c-1,0-2.1-0.3-2.8-1c-0.7-0.7-1.2-1.8-1.1-2.8c0-0.7,0.2-1.3,0.5-1.9c0.3-0.6,0.8-1,1.4-1.3
					c0.6-0.3,1.2-0.5,1.9-0.5C32.5,52.3,33,52.4,33.6,52.6L33.6,52.6z M32.6,58.4h1v-4.3c-0.4-0.2-0.8-0.3-1.3-0.3
					c-0.6,0-1.2,0.2-1.6,0.6c-0.4,0.4-0.6,1-0.6,1.6C30.1,57.6,30.9,58.4,32.6,58.4z M41.2,52.3c1,0,1.9,0.3,2.6,1.1
					c0.7,0.8,1,1.8,1,2.9v0.3h-5.3c0,0.6,0.3,1.1,0.7,1.5c0.5,0.4,1.1,0.6,1.7,0.6c0.5,0,0.9-0.1,1.4-0.2c0.5-0.2,0.9-0.4,1.3-0.7
					v1.5c-0.9,0.6-2,0.9-3.2,0.9c-1.1,0-2.1-0.3-2.9-1.1c-0.8-0.7-1.2-1.8-1.1-2.8c0-1,0.3-2,1-2.8C39.2,52.7,40.1,52.3,41.2,52.3
					L41.2,52.3z M42.9,55.4c0-0.5-0.2-0.9-0.5-1.3c-0.3-0.3-0.7-0.5-1.2-0.5c-0.4,0-0.9,0.1-1.2,0.4c-0.3,0.4-0.5,0.8-0.6,1.3
					L42.9,55.4z M49,52.3c0.4,0,0.8,0,1.2,0.1c0.4,0.1,0.8,0.3,1.1,0.4v1.6c-0.4-0.2-0.8-0.4-1.2-0.6c-0.4-0.1-0.7-0.2-1.1-0.2
					c-0.2,0-0.5,0-0.7,0.2c-0.2,0.1-0.2,0.3-0.2,0.5c0,0.1,0.1,0.3,0.2,0.3c0.4,0.2,0.7,0.4,1.1,0.6c0.6,0.3,1.2,0.7,1.7,1.2
					c0.3,0.4,0.5,0.8,0.5,1.3c0,0.6-0.2,1.3-0.7,1.7c-0.6,0.4-1.3,0.7-2,0.6c-0.5,0-1-0.1-1.5-0.2c-0.4-0.1-0.8-0.2-1.1-0.4v-1.7
					c0.7,0.5,1.5,0.8,2.4,0.9c0.3,0,0.6,0,0.8-0.2c0.2-0.1,0.3-0.3,0.3-0.5c0-0.1,0-0.2-0.1-0.3c-0.1-0.1-0.2-0.2-0.3-0.3
					c-0.1-0.1-0.6-0.3-1.4-0.7c-0.5-0.2-1-0.5-1.3-0.9c-0.3-0.3-0.4-0.8-0.4-1.2c0-0.6,0.3-1.2,0.8-1.6C47.5,52.5,48.2,52.3,49,52.3
					z M54.6,52.5l1.8,4.3l1.7-4.3h2.1L56.9,60h-0.9l-3.4-7.6H54.6z M64.9,52.3c1-0.1,1.9,0.3,2.6,1.1c0.7,0.8,1,1.8,1,2.9v0.3h-5.3
					c0,0.6,0.3,1.1,0.7,1.5c0.5,0.4,1.1,0.6,1.7,0.6c0.5,0,0.9-0.1,1.4-0.2c0.5-0.2,0.9-0.4,1.3-0.7v1.5c-0.9,0.6-2,1-3.2,0.9
					c-1.1,0-2.1-0.3-2.9-1.1c-0.8-0.7-1.2-1.8-1.1-2.8c0-1,0.3-2,1-2.8C62.9,52.7,63.9,52.3,64.9,52.3z M66.6,55.4
					c0-0.5-0.2-0.9-0.5-1.3c-0.3-0.3-0.7-0.5-1.1-0.5c-0.4,0-0.9,0.1-1.2,0.4c-0.3,0.4-0.5,0.8-0.6,1.3H66.6z M74.6,52.3
					c0.3,0,0.5,0.1,0.8,0.2c0.3,0.2,0.6,0.4,0.9,0.6l-0.7,1.7c-0.4-0.3-0.9-0.6-1.4-0.6c-0.3,0-0.6,0.1-0.9,0.3
					c-0.3,0.2-0.5,0.5-0.7,0.9c-0.2,0.3-0.3,0.7-0.3,1.1v3.4h-2v-7.4h2v1.9h0c0.3-0.6,0.6-1.1,1.1-1.6
					C73.7,52.5,74.1,52.3,74.6,52.3z M79.4,48.8v4.2c0.6-0.4,1.3-0.6,2-0.6c0.6,0,1.2,0.2,1.8,0.5c0.5,0.3,1,0.8,1.2,1.3
					c0.3,0.6,0.5,1.3,0.4,1.9c0.1,1.1-0.3,2.1-1.1,2.9c-0.8,0.7-1.9,1.1-3,1.1c-1.1,0-2.3-0.2-3.3-0.6V48.8H79.4z M79.4,58.4
					c0.5,0.1,1,0.2,1.5,0.2c0.6,0,1.1-0.2,1.4-0.7c0.4-0.5,0.6-1.2,0.5-1.8c0-0.6-0.2-1.2-0.6-1.7c-0.3-0.4-0.9-0.6-1.4-0.6
					c-0.3,0-0.5,0.1-0.7,0.2c-0.3,0.1-0.5,0.3-0.7,0.5L79.4,58.4z M89.4,52.3c0.8-0.1,1.6,0.2,2.2,0.6c0.5,0.4,0.8,1,0.8,1.7v3.6
					c0,0.3,0.1,0.4,0.3,0.4c0.1,0,0.3-0.1,0.4-0.1c0.2-0.1,0.3-0.2,0.4-0.3v1.1C93,59.8,92.4,60,91.7,60c-0.3,0-0.6,0-0.8-0.2
					c-0.2-0.1-0.3-0.4-0.4-0.6c-0.6,0.5-1.4,0.8-2.3,0.8c-0.5,0-1-0.2-1.4-0.6c-0.4-0.3-0.6-0.8-0.6-1.3c0-0.6,0.2-1.1,0.6-1.5
					c0.6-0.5,1.3-0.8,2-1l1.6-0.5v-0.3c0-0.7-0.4-1.1-1.3-1.1c-0.5,0-0.9,0.1-1.3,0.3c-0.5,0.2-0.9,0.5-1.2,0.9v-1.7
					C87.4,52.6,88.4,52.3,89.4,52.3L89.4,52.3z M88.2,57.9c0,0.2,0.1,0.5,0.3,0.7c0.2,0.2,0.4,0.3,0.6,0.2c0.5,0,0.9-0.2,1.3-0.6v-2
					c-0.4,0.2-0.9,0.3-1.3,0.6c-0.3,0.1-0.5,0.3-0.7,0.5C88.3,57.5,88.2,57.7,88.2,57.9L88.2,57.9z M99.3,52.3
					c0.7,0,1.4,0.2,1.9,0.8c0.5,0.6,0.7,1.3,0.7,2.1v4.7h-2v-4.5c0-0.4-0.1-0.8-0.3-1.1c-0.2-0.3-0.6-0.4-0.9-0.4
					c-0.3,0-0.6,0.1-0.9,0.3c-0.3,0.2-0.6,0.5-0.9,0.9v4.9h-2v-7.4h2v1c0.3-0.4,0.7-0.7,1.1-0.9C98.4,52.4,98.8,52.3,99.3,52.3z
					 M109.1,52.6v-3.9h2v11.1h-3.4c-1,0.1-2.1-0.3-2.9-1c-0.7-0.7-1.1-1.8-1.1-2.8c0-0.7,0.2-1.3,0.5-1.9c0.3-0.6,0.8-1,1.4-1.3
					c0.6-0.3,1.2-0.5,1.9-0.5C108.1,52.3,108.6,52.4,109.1,52.6z M108.1,58.4h1v-4.3c-0.4-0.2-0.8-0.3-1.3-0.3
					c-0.6,0-1.2,0.2-1.6,0.6c-0.4,0.4-0.6,1-0.6,1.6C105.7,57.6,106.5,58.4,108.1,58.4L108.1,58.4z M122.2,48.8
					c1.1,0,2.1,0.2,3.1,0.7c0.9,0.4,1.6,1.1,2.1,2c1,1.8,1,4,0,5.8c-0.5,0.8-1.3,1.5-2.1,2c-1,0.5-2.1,0.7-3.2,0.7h-4.5V48.8H122.2z
					 M121.9,58.2c1.1,0.1,2.1-0.3,2.9-1.1c1.4-1.6,1.4-4,0-5.7c-0.8-0.7-1.9-1.1-2.9-1h-2.2v7.7L121.9,58.2z M133.5,52.3
					c1,0,1.9,0.3,2.6,1.1c0.7,0.8,1,1.8,1,2.9v0.3h-5.3c0,0.6,0.3,1.1,0.7,1.5c0.5,0.4,1.1,0.6,1.7,0.6c0.5,0,0.9-0.1,1.4-0.2
					c0.5-0.2,0.9-0.4,1.3-0.7v1.5c-0.9,0.6-2,1-3.2,0.9c-1.1,0-2.1-0.3-2.9-1.1c-0.8-0.7-1.2-1.8-1.1-2.8c0-1,0.3-2,1-2.8
					C131.6,52.7,132.5,52.3,133.5,52.3z M135.2,55.4c0-0.5-0.2-0.9-0.5-1.3c-0.3-0.3-0.7-0.5-1.1-0.5c-0.4,0-0.9,0.1-1.2,0.4
					c-0.3,0.4-0.5,0.8-0.6,1.3H135.2z M140.8,52.5v4.6c0,0.4,0.1,0.8,0.4,1.1c0.3,0.3,0.6,0.4,1,0.4c0.3,0,0.7-0.1,0.9-0.3
					c0.3-0.2,0.6-0.5,0.7-0.9v-4.9h2v7.4h-2v-1c-0.6,0.7-1.4,1.1-2.3,1.2c-0.7,0-1.4-0.3-1.9-0.8c-0.5-0.6-0.8-1.3-0.7-2v-4.8H140.8
					z M150.1,50.5h0.2v2h2.5v1.5h-2.5v3.4c0,0.3,0.1,0.6,0.3,0.8c0.2,0.2,0.5,0.3,0.8,0.3c0.6,0,1.1-0.2,1.6-0.5v1.6
					c-0.6,0.3-1.3,0.5-2,0.5c-0.7,0-1.4-0.2-2-0.7c-0.5-0.5-0.7-1.2-0.7-1.9v-3.6h-1.2v-0.3L150.1,50.5z M156.9,52.3
					c0.4,0,0.8,0,1.2,0.1c0.4,0.1,0.8,0.3,1.1,0.4v1.6c-0.4-0.2-0.8-0.4-1.2-0.6c-0.4-0.1-0.8-0.2-1.1-0.2c-0.2,0-0.5,0-0.7,0.2
					c-0.2,0.1-0.2,0.3-0.2,0.5c0,0.1,0.1,0.3,0.2,0.3c0.4,0.2,0.7,0.4,1.1,0.6c0.7,0.3,1.3,0.7,1.8,1.2c0.3,0.4,0.5,0.8,0.5,1.3
					c0,0.6-0.2,1.3-0.7,1.7c-0.6,0.4-1.3,0.7-2,0.6c-0.5,0-1-0.1-1.5-0.2c-0.4-0.1-0.8-0.2-1.1-0.4v-1.7c0.7,0.5,1.5,0.7,2.4,0.8
					c0.3,0,0.6,0,0.8-0.2c0.2-0.1,0.3-0.3,0.3-0.5c0-0.1,0-0.2-0.1-0.3c-0.1-0.1-0.2-0.2-0.3-0.3c-0.1-0.1-0.6-0.3-1.4-0.7
					c-0.5-0.2-1-0.5-1.3-0.9c-0.3-0.3-0.4-0.8-0.4-1.2c0-0.6,0.3-1.2,0.8-1.6C155.4,52.5,156.1,52.3,156.9,52.3L156.9,52.3z
					 M164.9,52.3c0.8,0,1.6,0.2,2.3,0.5v1.7c-0.6-0.4-1.3-0.6-2-0.6c-0.6,0-1.2,0.2-1.7,0.6c-0.4,0.4-0.7,1.1-0.6,1.7
					c0,0.6,0.2,1.2,0.6,1.7c0.5,0.5,1.1,0.7,1.7,0.7c0.7-0.1,1.4-0.2,2-0.6v1.6c-0.8,0.3-1.6,0.5-2.4,0.5c-1.1,0-2.1-0.3-2.9-1
					c-0.8-0.7-1.2-1.7-1.1-2.8c0-1.1,0.4-2.1,1.1-2.9C162.9,52.7,163.9,52.3,164.9,52.3L164.9,52.3z M171.2,48.8v4.7h0
					c0.5-0.7,1.4-1.2,2.3-1.2c0.7,0,1.4,0.3,1.9,0.8c0.5,0.6,0.8,1.3,0.7,2v4.8h-2v-4.4c0-0.4-0.1-0.8-0.4-1.2
					c-0.2-0.3-0.6-0.5-1-0.4c-0.3,0-0.6,0.1-0.8,0.3c-0.3,0.2-0.6,0.5-0.9,0.8v4.9h-2V48.8H171.2z M181.7,52.3c1,0,1.9,0.3,2.6,1.1
					c0.7,0.8,1,1.8,1,2.9v0.3H180c0,0.6,0.3,1.1,0.7,1.5c0.5,0.4,1.1,0.6,1.7,0.6c0.5,0,0.9-0.1,1.4-0.2c0.5-0.2,0.9-0.4,1.3-0.7
					v1.5c-0.9,0.6-2,1-3.2,0.9c-1.1,0-2.1-0.3-2.9-1.1c-0.8-0.7-1.2-1.8-1.1-2.8c0-1,0.3-2,1-2.8C179.7,52.7,180.7,52.3,181.7,52.3
					L181.7,52.3z M183.4,55.4c0-0.5-0.2-0.9-0.5-1.3c-0.3-0.3-0.7-0.5-1.1-0.5c-0.4,0-0.9,0.1-1.2,0.4c-0.3,0.4-0.5,0.8-0.6,1.3
					H183.4z M191.4,52.3c0.3,0,0.5,0.1,0.8,0.2c0.3,0.2,0.6,0.4,0.9,0.6l-0.7,1.7c-0.4-0.3-0.9-0.6-1.4-0.6c-0.3,0-0.6,0.1-0.9,0.3
					c-0.3,0.2-0.5,0.5-0.7,0.9c-0.2,0.3-0.3,0.7-0.3,1.1v3.4h-2v-7.4h2v1.9h0c0.3-0.6,0.6-1.1,1.1-1.6
					C190.5,52.5,190.9,52.3,191.4,52.3L191.4,52.3z M2.1,66.7v11.1H0V66.7L2.1,66.7z M9,70.2c0.7,0,1.4,0.3,1.9,0.8
					c0.5,0.6,0.7,1.3,0.7,2.1v4.7h-2v-4.5c0-0.4-0.1-0.8-0.3-1.2c-0.2-0.3-0.6-0.4-0.9-0.4c-0.3,0-0.6,0.1-0.9,0.3
					c-0.3,0.2-0.6,0.6-0.9,0.9v4.9h-2v-7.4h2v1c0.3-0.4,0.7-0.7,1.1-0.9C8.1,70.3,8.6,70.2,9,70.2L9,70.2z M15.8,66.7v11.1h-2V66.7
					L15.8,66.7z M21.2,70.4l-3,3.7l3.4,3.8h-2.5l-3.3-3.8l3.1-3.7L21.2,70.4z M25.3,70.2c0.8-0.1,1.6,0.2,2.2,0.6
					c0.5,0.4,0.8,1,0.8,1.7v3.6c0,0.3,0.1,0.4,0.3,0.4c0.1,0,0.3-0.1,0.4-0.1c0.2-0.1,0.3-0.2,0.4-0.3v1.1c-0.5,0.4-1.2,0.6-1.9,0.7
					c-0.3,0-0.6,0-0.8-0.2c-0.2-0.1-0.3-0.4-0.4-0.6c-0.7,0.5-1.5,0.8-2.3,0.8c-0.5,0-1-0.2-1.4-0.6c-0.4-0.3-0.6-0.8-0.6-1.3
					c0-0.6,0.2-1.1,0.6-1.5c0.6-0.5,1.3-0.8,2-1l1.6-0.5v-0.3c0-0.7-0.4-1.1-1.3-1.1c-0.5,0-0.9,0.1-1.4,0.3
					c-0.5,0.2-0.9,0.5-1.2,0.9v-1.8C23.2,70.6,24.3,70.2,25.3,70.2L25.3,70.2z M24.1,75.8c0,0.2,0.1,0.5,0.3,0.7
					c0.2,0.2,0.4,0.3,0.6,0.2c0.5,0,1-0.2,1.3-0.6v-2c-0.4,0.2-0.9,0.3-1.3,0.6c-0.3,0.1-0.5,0.3-0.7,0.5
					C24.2,75.4,24.1,75.6,24.1,75.8L24.1,75.8z M33.2,70.2c0.4,0,0.8,0,1.2,0.1c0.4,0.1,0.8,0.3,1.1,0.4v1.6
					c-0.4-0.2-0.8-0.4-1.2-0.6c-0.4-0.1-0.8-0.2-1.1-0.2c-0.2,0-0.5,0-0.7,0.2c-0.2,0.1-0.2,0.3-0.2,0.5c0,0.1,0.1,0.3,0.2,0.3
					c0.3,0.2,0.7,0.4,1.1,0.6c0.7,0.3,1.3,0.7,1.8,1.2c0.3,0.4,0.5,0.8,0.5,1.3c0,0.7-0.2,1.3-0.7,1.7c-0.6,0.4-1.3,0.7-2.1,0.6
					c-0.5,0-1-0.1-1.5-0.2c-0.4-0.1-0.8-0.2-1.1-0.4v-1.6c0.7,0.5,1.6,0.7,2.4,0.8c0.3,0,0.6-0.1,0.8-0.2c0.2-0.1,0.3-0.3,0.3-0.5
					c0-0.1,0-0.2-0.1-0.3c-0.1-0.1-0.2-0.2-0.3-0.3c-0.1-0.1-0.6-0.3-1.4-0.7c-0.5-0.2-1-0.5-1.3-0.9c-0.3-0.3-0.4-0.8-0.4-1.2
					c0-0.6,0.3-1.2,0.8-1.6C31.8,70.4,32.5,70.2,33.2,70.2L33.2,70.2z M40.2,70.2c0.4,0,0.8,0,1.2,0.1c0.4,0.1,0.8,0.3,1.1,0.4v1.6
					c-0.4-0.2-0.8-0.4-1.2-0.6c-0.4-0.1-0.8-0.2-1.1-0.2c-0.2,0-0.5,0-0.7,0.2c-0.2,0.1-0.3,0.3-0.2,0.5c0,0.1,0.1,0.3,0.2,0.3
					c0.3,0.2,0.7,0.4,1.1,0.6c0.7,0.3,1.3,0.7,1.8,1.2c0.3,0.4,0.5,0.8,0.5,1.3c0,0.7-0.2,1.3-0.8,1.7c-0.6,0.4-1.3,0.7-2,0.6
					c-0.5,0-1-0.1-1.5-0.2c-0.4-0.1-0.8-0.2-1.1-0.4v-1.6c0.7,0.5,1.6,0.7,2.4,0.8c0.3,0,0.6-0.1,0.8-0.2c0.2-0.1,0.3-0.3,0.3-0.5
					c0-0.1,0-0.2-0.1-0.3c-0.1-0.1-0.2-0.2-0.3-0.3c-0.1-0.1-0.6-0.3-1.4-0.7c-0.5-0.2-1-0.5-1.3-0.9c-0.3-0.3-0.4-0.8-0.4-1.2
					c0-0.6,0.3-1.2,0.8-1.6C38.7,70.4,39.4,70.2,40.2,70.2L40.2,70.2z M48.4,70.2c0.7,0,1.5,0.2,2.1,0.5c0.6,0.3,1.1,0.8,1.5,1.4
					c0.4,0.6,0.5,1.3,0.5,2c0,0.7-0.2,1.4-0.5,2c-0.3,0.6-0.9,1.1-1.5,1.4c-1.3,0.7-2.9,0.7-4.3,0c-0.6-0.3-1.1-0.8-1.4-1.4
					c-0.3-0.6-0.5-1.3-0.5-2c0-0.7,0.2-1.4,0.6-2c0.3-0.6,0.9-1.1,1.5-1.4C46.9,70.4,47.6,70.2,48.4,70.2L48.4,70.2z M46.3,74.1
					c0,0.6,0.2,1.3,0.6,1.8c0.4,0.4,0.9,0.7,1.5,0.7c0.6,0,1.1-0.2,1.5-0.6c0.4-0.5,0.6-1.2,0.6-1.8c0-0.6-0.2-1.3-0.6-1.7
					c-0.4-0.4-0.9-0.6-1.5-0.6c-0.6,0-1.1,0.2-1.4,0.7C46.5,72.9,46.3,73.5,46.3,74.1L46.3,74.1z M58.4,73.2v1.9h-4.1v-1.9H58.4z
					 M62.7,66.7v6.5c0,0.5,0.1,1.1,0.3,1.6c0.2,0.4,0.6,0.7,1,1c0.5,0.3,1,0.4,1.6,0.4c0.6,0,1.1-0.1,1.7-0.4c0.4-0.2,0.8-0.6,1-1
					c0.2-0.5,0.3-1.1,0.3-1.7v-6.4h2.2v6.6c0.1,1.3-0.4,2.6-1.3,3.5c-1.1,0.8-2.4,1.3-3.8,1.2c-0.9,0-1.8-0.2-2.7-0.6
					c-0.7-0.3-1.3-0.9-1.7-1.6c-0.4-0.7-0.6-1.6-0.6-2.4v-6.7L62.7,66.7z M77.5,70.2c0.7,0,1.4,0.3,1.9,0.8c0.5,0.6,0.7,1.3,0.7,2.1
					v4.7h-2v-4.5c0-0.4-0.1-0.8-0.3-1.2c-0.2-0.3-0.6-0.4-0.9-0.4c-0.3,0-0.6,0.1-0.9,0.3c-0.3,0.2-0.6,0.5-0.9,0.9v4.9h-2v-7.4h2v1
					c0.3-0.4,0.7-0.7,1.1-0.9C76.6,70.3,77,70.2,77.5,70.2L77.5,70.2z M84.3,68.4h0.2v2h2.6v1.5h-2.6v3.4c0,0.3,0.1,0.6,0.3,0.8
					c0.2,0.2,0.5,0.3,0.8,0.3c0.6,0,1.1-0.2,1.6-0.5v1.6c-0.6,0.3-1.3,0.5-2,0.5c-0.7,0-1.4-0.2-2-0.7c-0.5-0.5-0.7-1.2-0.7-1.9
					v-3.5h-1.2v-0.3L84.3,68.4z M92,70.2c1,0,1.9,0.3,2.6,1.1c0.7,0.8,1,1.9,1,2.9v0.3h-5.3c0,0.6,0.3,1.1,0.7,1.5
					c0.5,0.4,1.1,0.6,1.7,0.6c0.5,0,0.9-0.1,1.4-0.2c0.5-0.2,0.9-0.4,1.3-0.7v1.5c-0.9,0.6-2,1-3.2,0.9c-1.1,0-2.1-0.3-2.9-1.1
					c-0.8-0.7-1.2-1.8-1.1-2.8c0-1,0.3-2,1-2.8C90,70.6,91,70.2,92,70.2z M93.7,73.3c0-0.5-0.2-0.9-0.5-1.3
					c-0.3-0.3-0.7-0.5-1.1-0.5c-0.4,0-0.9,0.1-1.2,0.4c-0.3,0.4-0.5,0.8-0.6,1.3H93.7z M101.7,70.2c0.3,0,0.5,0.1,0.8,0.2
					c0.3,0.2,0.6,0.4,0.9,0.6l-0.7,1.7c-0.4-0.3-0.9-0.6-1.4-0.6c-0.3,0-0.6,0.1-0.9,0.3c-0.3,0.2-0.5,0.5-0.7,0.9
					c-0.2,0.3-0.3,0.7-0.3,1.1v3.4h-2v-7.4h2v1.9h0c0.3-0.6,0.6-1.1,1.1-1.6C100.8,70.4,101.2,70.3,101.7,70.2z M108.8,70.2
					c0.7,0,1.4,0.3,1.9,0.8c0.5,0.6,0.7,1.3,0.7,2.1v4.7h-1.9v-4.5c0-0.4-0.1-0.8-0.3-1.2c-0.2-0.3-0.6-0.4-0.9-0.4
					c-0.3,0-0.6,0.1-0.9,0.3c-0.3,0.2-0.6,0.5-0.9,0.9v4.9h-2v-7.4h2v1c0.3-0.4,0.7-0.7,1.1-0.9C108,70.3,108.4,70.2,108.8,70.2
					L108.8,70.2z M117,70.2c1,0,1.9,0.3,2.6,1.1c0.7,0.8,1,1.9,1,2.9v0.3h-5.3c0,0.6,0.3,1.1,0.7,1.5c0.5,0.4,1.1,0.6,1.7,0.6
					c0.5,0,0.9-0.1,1.4-0.2c0.5-0.2,0.9-0.4,1.3-0.7v1.5c-0.9,0.6-2,1-3.2,0.9c-1.1,0-2.1-0.3-2.9-1.1c-0.8-0.7-1.2-1.8-1.1-2.8
					c0-1,0.3-2,1-2.8C115,70.6,116,70.2,117,70.2L117,70.2z M118.7,73.3c0-0.5-0.2-0.9-0.5-1.3c-0.3-0.3-0.7-0.5-1.1-0.5
					c-0.4,0-0.9,0.1-1.2,0.4c-0.3,0.4-0.5,0.8-0.6,1.3H118.7z M124.4,66.7v4.7h0c0.5-0.7,1.4-1.2,2.3-1.2c0.7,0,1.4,0.3,1.9,0.8
					c0.5,0.6,0.8,1.3,0.7,2v4.8h-2v-4.4c0-0.4-0.1-0.8-0.4-1.2c-0.2-0.3-0.6-0.5-1-0.4c-0.3,0-0.6,0.1-0.8,0.3
					c-0.3,0.2-0.6,0.5-0.9,0.8v4.9h-2V66.7L124.4,66.7z M135.9,70.2c0.5,0,1,0.1,1.5,0.4c0.4,0.3,0.7,0.7,0.9,1.1
					c0.3-0.4,0.8-0.8,1.3-1.1c0.4-0.2,0.9-0.4,1.4-0.4c0.7,0,1.4,0.3,1.9,0.8c0.5,0.6,0.8,1.3,0.7,2.1v4.8h-1.9v-4.4
					c0-0.4-0.1-0.9-0.3-1.2c-0.2-0.3-0.6-0.5-1-0.4c-0.6,0-1.2,0.4-1.7,1.2v4.9h-2v-4.5c0-0.4-0.1-0.8-0.3-1.2
					c-0.2-0.3-0.6-0.4-0.9-0.4c-0.3,0-0.6,0.1-0.9,0.3c-0.3,0.2-0.6,0.5-0.9,0.9v4.9h-2v-7.5h2v1c0.3-0.4,0.7-0.7,1.1-0.9
					C135.1,70.4,135.5,70.2,135.9,70.2z M149.1,70.2c1,0,1.9,0.3,2.6,1.1c0.7,0.8,1,1.9,1,2.9v0.3h-5.3c0,0.6,0.3,1.1,0.7,1.5
					c0.5,0.4,1.1,0.6,1.7,0.6c0.5,0,0.9-0.1,1.4-0.2c0.5-0.2,0.9-0.4,1.3-0.7v1.5c-0.9,0.6-2.1,1-3.2,0.9c-1.1,0-2.1-0.3-2.9-1.1
					c-0.8-0.7-1.2-1.8-1.1-2.8c0-1,0.3-2,1-2.8C147.1,70.6,148.1,70.2,149.1,70.2z M150.8,73.3c0-0.5-0.2-0.9-0.5-1.3
					c-0.3-0.3-0.7-0.5-1.1-0.5c-0.4,0-0.9,0.1-1.2,0.4c-0.3,0.4-0.5,0.8-0.6,1.3H150.8z M158.8,70.2c0.7,0,1.4,0.3,1.9,0.8
					c0.5,0.6,0.7,1.3,0.7,2.1v4.7h-2v-4.5c0-0.4-0.1-0.8-0.3-1.2c-0.2-0.3-0.6-0.4-0.9-0.4c-0.3,0-0.6,0.1-0.9,0.3
					c-0.3,0.2-0.6,0.5-0.9,0.9v4.9h-2v-7.4h2v1c0.3-0.4,0.7-0.7,1.1-0.9C157.9,70.3,158.4,70.2,158.8,70.2z"/>
			</g>
		</g>
	</g>
</g>
</svg>
