<?xml version="1.0" encoding="UTF-8" standalone="no" ?>
<!DOCTYPE svg PUBLIC "-//W3C//DTD SVG 1.1//EN" "http://www.w3.org/Graphics/SVG/1.1/DTD/svg11.dtd">
<svg xmlns="http://www.w3.org/2000/svg" xmlns:xlink="http://www.w3.org/1999/xlink" version="1.1" width="1080" height="1080" viewBox="0 0 1080 1080" xml:space="preserve">
<desc>Created with Fabric.js 5.2.4</desc>
<defs>
</defs>
<g transform="matrix(1 0 0 1 540 540)" id="ab3c894b-04b5-4be7-9afa-805cc398dec7"  >
</g>
<g transform="matrix(1 0 0 1 540 540)" id="8cb235de-dde4-4af4-acf8-516d7cd8847f"  >
<rect style="stroke: none; stroke-width: 1; stroke-dasharray: none; stroke-linecap: butt; stroke-dashoffset: 0; stroke-linejoin: miter; stroke-miterlimit: 4; fill: rgb(255,255,255); fill-rule: nonzero; opacity: 1; visibility: hidden;" vector-effect="non-scaling-stroke"  x="-540" y="-540" rx="0" ry="0" width="1080" height="1080" />
</g>
<g transform="matrix(1 0 0 1 540 540)"  >
<path style="stroke: rgb(0,0,0); stroke-width: 0; stroke-dasharray: none; stroke-linecap: butt; stroke-dashoffset: 0; stroke-linejoin: miter; stroke-miterlimit: 4; fill: rgb(0,105,130); fill-rule: nonzero; opacity: 1;" vector-effect="non-scaling-stroke"  transform=" translate(-96.57, -39)" d="M 65.4884838 0.00355668733 C 68.8641788 0.00355668733 71.6145402 0.881118834 73.7395679 2.63624313 C 75.7746877 4.21212939 76.9526232 6.65063771 76.9215755 9.22349008 C 76.9477228 10.8010424 76.4815745 12.3475635 75.5878993 13.6481732 C 74.6048568 15.006452 73.2638082 16.0652922 71.7141509 16.7067354 L 71.7141509 17.021994 C 74.0492749 17.46357 76.1679645 18.6771953 77.7295288 20.467716 C 79.150415 22.1477103 79.9133205 24.2858038 79.8766922 26.485285 C 79.9075693 28.4215845 79.3625022 30.3234478 78.310591 31.9497686 C 77.2564668 33.5654887 75.7411286 34.8275694 73.960925 35.5724779 C 71.8854943 36.4226293 69.6566866 36.8350028 67.4142902 36.7837349 L 52.0189072 36.7837349 L 52.0189072 0.00355668733 L 65.4884838 0.00355668733 Z M 63.5903471 15.2797751 C 65.471882 15.2797751 66.9475957 14.8317759 68.0174881 13.9357776 C 69.1294077 13.0205497 69.7446254 11.6350289 69.677666 10.1969204 C 69.7328181 8.89670905 69.1782987 7.64513154 68.177972 6.81203779 C 67.0526871 5.93682727 65.650964 5.49339096 64.2267486 5.56206482 L 59.1134007 5.56206482 L 59.1134007 15.2797751 L 63.5903471 15.2797751 Z M 65.250525 31.2362885 C 67.6596276 31.2362885 69.4784447 30.7846021 70.7069763 29.8812293 C 71.9516781 28.9451099 72.6437318 27.4475312 72.5497738 25.8934836 C 72.601463 24.43054 71.9130004 23.0398278 70.7180442 22.1933424 C 69.5005804 21.2862824 67.8625382 20.8327523 65.8039176 20.8327523 L 59.1134007 20.8327523 L 59.1134007 31.2362885 L 65.250525 31.2362885 Z M 101.569683 0.00355668733 C 105.115449 -0.0606192634 108.622935 0.744553219 111.785311 2.34863873 C 114.686401 3.83209341 117.100654 6.11639469 118.741457 8.93035482 C 120.409441 11.8283959 121.264038 15.1225936 121.215122 18.4655469 C 121.278641 21.8246403 120.417177 25.1365661 118.724855 28.0394549 C 117.048322 30.8375171 114.59009 33.0848392 111.652497 34.5050231 C 108.375161 36.0798445 104.773823 36.8641214 101.138037 36.7947966 L 86.1576985 36.7947966 L 86.1576985 0.00355668733 L 101.569683 0.00355668733 Z M 100.833671 31.2362885 C 104.766448 31.2362885 107.924475 30.056373 110.307753 27.696542 C 112.69103 25.336711 113.880825 22.2412765 113.877144 18.4102383 C 113.877144 14.4427725 112.678118 11.308622 110.280083 9.00778678 C 107.882049 6.70695157 104.653925 5.55653397 100.595712 5.55653397 L 93.2687938 5.55653397 L 93.2687938 31.2362885 L 100.833671 31.2362885 Z M 135.409643 0.00355668733 L 135.409643 36.7947966 L 128.298547 36.7947966 L 128.298547 0.00355668733 L 135.409643 0.00355668733 Z M 151.34735 0.00355668733 L 151.34735 21.413492 C 151.26743 23.2137274 151.604534 25.0080926 152.332389 26.6567415 C 153.065037 28.0259398 154.190488 29.1449874 155.564202 29.8701675 C 157.164192 30.7374039 158.963017 31.172085 160.782695 31.1312022 C 162.696889 31.1864469 164.595896 30.7764892 166.316621 29.9365378 C 167.740239 29.2236609 168.902271 28.0796954 169.636977 26.6678032 C 170.34163 25.2887769 170.693957 23.3806323 170.693957 20.9433694 L 170.693957 0.00355668733 L 177.810586 0.00355668733 L 177.810586 21.8614912 C 177.810586 26.8097617 176.325649 30.6149892 173.355775 33.2771735 C 170.385901 35.9393579 166.187496 37.27045 160.760559 37.27045 C 157.709419 37.3409901 154.682021 36.7188272 151.906277 35.4507991 C 149.501444 34.3303476 147.501212 32.4954049 146.178663 30.1964879 C 144.816546 27.7290437 144.134756 24.9442269 144.203051 22.1269721 L 144.203051 0.00355668733 L 151.34735 0.00355668733 Z M 0 25.7607431 L 0 36.7947966 L 11.9643487 36.7947966 C 11.9643487 31.8391515 7.80283608 25.7607431 0 25.7607431 Z M 21.1672681 36.7947966 L 36.8116777 36.7947966 L 36.8116777 21.6181336 C 32.7205122 21.5471813 28.7697275 23.1086388 25.8336205 25.9569602 C 22.8975135 28.8052815 21.218186 32.7056036 21.1672681 36.7947966 Z M 0 0.00355668733 L 0 18.3991766 L 0 18.3991766 C 8.69933214 18.3991766 14.2996656 24.3005977 16.4689647 30.760635 C 18.7434084 22.3316137 25.6829519 14.2620979 36.8116777 14.2620979 L 36.8116777 0.00355668733 L 0 0.00355668733 Z M 15.0246099 17.6359188 C 11.4670731 17.6359188 8.58311969 14.7535666 8.58311969 11.1980049 C 8.58311969 7.64244324 11.4670731 4.76009101 15.0246099 4.76009101 C 18.5821467 4.76009101 21.4661001 7.64244324 21.4661001 11.1980049 C 21.4661001 12.9054458 20.7874451 14.5429544 19.5794313 15.7502975 C 18.3714176 16.9576405 16.7329993 17.6359188 15.0246099 17.6359188 Z M 4.07850368 48.7801569 C 4.97870698 48.7407363 5.86352252 49.0230926 6.57430444 49.5765999 C 7.18956236 50.0529575 7.54595591 50.7899141 7.53720762 51.5677073 C 7.54698707 52.0469736 7.40565648 52.517169 7.133231 52.9117047 C 6.83897207 53.3235008 6.43417016 53.6437112 5.96557255 53.8353573 L 5.96557255 53.9293819 C 6.66983006 54.0636416 7.30883515 54.4296973 7.78070037 54.9691824 C 8.20831231 55.4782545 8.43816212 56.1242254 8.42816975 56.7888333 C 8.43935988 57.3762859 8.27563627 57.9538132 7.95778602 58.4480895 C 7.64003934 58.940787 7.18103931 59.3262871 6.64071156 59.5542602 C 6.01254783 59.8110627 5.33805896 59.9353408 4.65956594 59.9192966 L 0 59.9192966 L 0 48.7801569 L 4.07850368 48.7801569 Z M 3.52511105 53.3984199 C 4.00927635 53.4242775 4.48715785 53.2794267 4.87538907 52.9891367 C 5.20094462 52.7156671 5.38256951 52.3077479 5.36790851 51.8829659 C 5.38466792 51.4898161 5.21683705 51.1113835 4.91412655 50.859758 C 4.57368161 50.5952249 4.14946975 50.4617508 3.71879847 50.4836599 L 2.15269733 50.4836599 L 2.15269733 53.4205433 L 3.52511105 53.3984199 Z M 4.02869834 58.2213244 C 4.61164309 58.2658312 5.19350962 58.1223838 5.68887623 57.8120413 C 6.06353831 57.527962 6.27123212 57.0754408 6.24226886 56.6063151 C 6.25437604 56.1683276 6.04672517 55.7532565 5.68887623 55.5001443 C 5.25227592 55.2059882 4.7315466 55.0622845 4.20578399 55.0908612 L 2.15269733 55.0908612 L 2.15269733 58.2323862 L 4.02869834 58.2213244 Z M 12.2133753 52.4637056 L 12.2133753 57.0709068 C 12.183429 57.4734614 12.3148227 57.8714028 12.5786145 58.1770776 C 12.8285859 58.434491 13.1775398 58.5715759 13.5359837 58.5531757 C 13.8759125 58.5503921 14.2072973 58.4464105 14.487819 58.2545096 C 14.7990055 58.0363957 15.050223 57.7434714 15.2182973 57.4027581 L 15.2182973 52.4637056 L 17.1551715 52.4637056 L 17.1551715 59.902704 L 15.2182973 59.902704 L 15.2182973 58.8905578 C 14.6573318 59.5912559 13.8189898 60.0132227 12.9217179 60.0465062 C 12.1972629 60.0764727 11.495178 59.7921653 10.9959116 59.2666558 C 10.4929058 58.7087751 10.2286777 57.976098 10.2598994 57.2257708 L 10.2598994 52.4637056 L 12.2133753 52.4637056 Z M 23.7958831 52.3254342 C 24.5073241 52.2987804 25.1954923 52.581156 25.6829519 53.0997538 C 26.1766223 53.6727739 26.4320635 54.4129443 26.3968284 55.1682931 L 26.3968284 59.8971732 L 24.4433525 59.8971732 L 24.4433525 55.3674039 C 24.468721 54.95202 24.3472839 54.5409292 24.100249 54.2059245 C 23.8692765 53.9232641 23.5188082 53.7655385 23.1539476 53.7800488 C 22.8486255 53.7798663 22.5508016 53.8745758 22.301723 54.0510606 C 21.9644591 54.2970199 21.6691969 54.5958536 21.4273626 54.9359973 L 21.4273626 59.8805806 L 19.4628188 59.8805806 L 19.4628188 52.4637056 L 21.4273626 52.4637056 L 21.4273626 53.509037 C 21.7287599 53.1312069 22.1057212 52.8203865 22.5341479 52.5964461 C 22.9283319 52.410497 23.3600647 52.3177638 23.7958831 52.3254342 L 23.7958831 52.3254342 Z M 33.6684076 52.635162 L 33.6684076 48.7635643 L 35.6218836 48.7635643 L 35.6218836 59.902704 L 32.1576457 59.902704 C 31.117212 59.9457139 30.1015614 59.5782167 29.3298094 58.8794961 C 28.580567 58.1433659 28.1784114 57.1244673 28.2230241 56.0753531 C 28.2150164 55.4044479 28.3869958 54.7436496 28.7210775 54.1616777 C 29.0464599 53.5948638 29.521147 53.1280922 30.0934912 52.8121494 C 30.6673046 52.4882878 31.3160572 52.3204685 31.9750261 52.3254342 C 32.5458254 52.3314321 33.1112694 52.4362244 33.6462719 52.635162 L 33.6684076 52.635162 Z M 32.6501652 58.4093735 L 33.6462719 58.4093735 L 33.6462719 54.1008383 C 33.2596487 53.8946239 32.828304 53.7863728 32.3900706 53.7855797 C 31.8043801 53.7579765 31.2347033 53.9812945 30.8239695 54.3995044 C 30.4201311 54.8355084 30.2087338 55.4155315 30.2373733 56.0089829 C 30.2373733 57.6092433 31.0416372 58.4093735 32.6501652 58.4093735 Z M 41.2443527 52.3254342 C 42.2221984 52.276141 43.1719632 52.6606935 43.8397641 53.3762965 C 44.5191461 54.1859604 44.8618168 55.2252797 44.7971334 56.2799947 L 44.7971334 56.57313 L 39.5066998 56.57313 C 39.5474891 57.1617231 39.8129567 57.7121634 40.248246 58.1107074 C 40.7344208 58.4962082 41.3438387 58.6926855 41.9637631 58.6637928 C 42.4248227 58.6643371 42.882213 58.5819026 43.3140411 58.4204352 C 43.7927997 58.2356071 44.2449744 57.9882579 44.6587852 57.6848316 L 44.6587852 59.1394462 C 43.7294951 59.766989 42.625332 60.0845017 41.5044472 60.0465062 C 40.4434244 60.0871383 39.4092513 59.7074895 38.6268056 58.9901131 C 37.874359 58.2492652 37.4720478 57.2239412 37.5200203 56.1693777 C 37.4844414 55.147915 37.8544458 54.1538317 38.5493306 53.4039507 C 39.2456915 52.6834099 40.2149233 52.291511 41.2166831 52.3254342 L 41.2443527 52.3254342 Z M 42.9598698 55.3895273 C 42.9353368 54.9229358 42.760645 54.476749 42.4618165 54.1174309 C 42.1625393 53.7946106 41.733542 53.6239198 41.294158 53.6528392 C 40.8545712 53.6369707 40.4266511 53.7961083 40.1043639 54.0953075 C 39.7821532 54.4517386 39.587502 54.905024 39.5509712 55.3839964 L 42.9598698 55.3895273 Z M 49.0471888 52.3254342 C 49.4370413 52.3220401 49.8257267 52.3685077 50.2037794 52.4637056 C 50.6006125 52.569033 50.9847353 52.7174038 51.3493021 52.9061739 L 51.3493021 54.4714055 C 50.9748767 54.2390911 50.5734618 54.0533541 50.153974 53.9183201 C 49.7990437 53.7866453 49.4254891 53.7119759 49.0471888 53.697086 C 48.8149626 53.6851643 48.5842681 53.7408845 48.3831176 53.8574808 C 48.2287866 53.9556455 48.1381926 54.1283102 48.1451588 54.3110108 C 48.1592866 54.4470851 48.23202 54.5702594 48.3443801 54.6483929 C 48.6959361 54.8828641 49.0660997 55.0881908 49.4511654 55.2623176 C 50.0907019 55.5513318 50.6793419 55.9416729 51.1943522 56.4182661 C 51.5333734 56.7694905 51.7185574 57.2411489 51.7090073 57.7290785 C 51.7376896 58.3787972 51.4614092 59.0046852 50.9619273 59.4215197 C 50.3800134 59.8578092 49.6628731 60.0751818 48.9365102 60.0354445 C 48.4369465 60.0399523 47.9387604 59.9823583 47.453418 59.863988 C 47.0561444 59.7675605 46.6716446 59.6246134 46.3078953 59.4381123 L 46.3078953 57.7788561 C 47.0230184 58.2540514 47.8439256 58.5465271 48.6985514 58.6306076 C 48.9803533 58.6416254 49.2603186 58.5807144 49.5120386 58.4536203 C 49.6950711 58.3641738 49.8141234 58.1814451 49.8219385 57.9779669 C 49.8233107 57.8614564 49.7841935 57.7480793 49.7112599 57.6571774 C 49.6170552 57.5422738 49.5049395 57.4432933 49.3792244 57.3640421 C 49.2298083 57.2644867 48.7649585 57.0211292 47.9846749 56.6395002 C 47.480456 56.423044 47.0264104 56.1048237 46.6509987 55.7047859 C 46.3658052 55.3708864 46.2140577 54.943472 46.2248864 54.5045907 C 46.2099124 53.8704913 46.5157801 53.271573 47.0383735 52.9117047 C 47.6254815 52.501293 48.3313601 52.2952831 49.0471888 52.3254342 Z M 54.7083954 52.4637056 L 56.4903196 56.7722407 L 58.2335064 52.4637056 L 60.3197966 52.4637056 L 56.9551695 60.0465062 L 56.0088681 60.0465062 L 52.5999695 52.4637056 L 54.7083954 52.4637056 Z M 64.9904304 52.3254342 C 65.9701723 52.2744817 66.9223053 52.6591729 67.5913758 53.3762965 C 68.2687576 54.1870721 68.6111589 55.2255742 68.548745 56.2799947 L 68.548745 56.57313 L 63.2804472 56.57313 C 63.3212365 57.1617231 63.5867041 57.7121634 64.0219933 58.1107074 C 64.5103449 58.4961408 65.1214459 58.6925272 65.7430444 58.6637928 C 66.20404 58.6636201 66.6613037 58.5812085 67.0933224 58.4204352 C 67.5697486 58.2343021 68.0199281 57.9870268 68.4325326 57.6848316 L 68.4325326 59.1394462 C 67.500593 59.7762353 66.3899176 60.0997603 65.2615928 60.0630988 C 64.2020767 60.1046798 63.1692726 59.724803 62.3894851 59.0067057 C 61.6352395 58.2670455 61.2326 57.2408848 61.2826998 56.1859702 C 61.2471209 55.1645076 61.6171253 54.1704243 62.3120101 53.4205433 C 63.0092755 52.6927599 63.9827132 52.2947565 64.9904304 52.3254342 Z M 66.7059476 55.3895273 C 66.6833777 54.9234964 66.5106072 54.4772589 66.2134281 54.1174309 C 65.9190138 53.8049691 65.5023583 53.6371865 65.0734393 53.65837 C 64.6331543 53.63811 64.2035885 53.7978596 63.8836452 54.1008383 C 63.557001 54.4544118 63.3616566 54.9093116 63.3302525 55.3895273 L 66.7059476 55.3895273 Z M 74.6637336 52.3254342 C 74.9296285 52.3254342 75.1922616 52.3839512 75.4329494 52.4968907 C 75.7510375 52.6590723 76.0467911 52.8617091 76.3128436 53.0997538 L 75.6155689 54.8087876 C 75.2303423 54.4669437 74.753104 54.2457665 74.2431552 54.1727394 C 73.9152098 54.1829928 73.5999238 54.3016456 73.3466591 54.5101215 C 73.0430825 54.7487109 72.8003465 55.0557531 72.6383166 55.4061198 C 72.4686215 55.7505318 72.3778781 56.1284194 72.3726881 56.5122906 L 72.3726881 59.902704 L 70.4081443 59.902704 L 70.4081443 52.4637056 L 72.3726881 52.4637056 L 72.3726881 54.3607885 L 72.4003577 54.3607885 C 72.6616098 53.7809488 73.0274081 53.2541168 73.4794734 52.8066185 C 73.7987067 52.5016497 74.2221434 52.3296004 74.6637336 52.3254342 Z M 79.516987 48.7801569 L 79.516987 52.9448899 C 80.091096 52.5343455 80.7811824 52.3173602 81.4870647 52.3254342 C 82.1140491 52.3187109 82.7307051 52.4852305 83.268989 52.8066185 C 83.8030426 53.1284483 84.2333163 53.5968791 84.5085885 54.1561469 C 84.8074281 54.7612267 84.9591138 55.4282729 84.9513026 56.1030074 C 85.0036321 57.1778905 84.6020794 58.2253611 83.8445173 58.9901131 C 83.03003 59.7277956 81.9536239 60.1083131 80.8561971 60.0465062 C 79.7194995 60.0478269 78.5928442 59.8338812 77.5358414 59.4159889 L 77.5358414 48.7801569 L 79.516987 48.7801569 Z M 79.516987 58.3540649 C 79.9915786 58.5013768 80.4865904 58.5723203 80.9834774 58.5642374 C 81.5379451 58.5871073 82.0701788 58.3447571 82.4167643 57.9115966 C 82.7937425 57.3823464 82.97916 56.7405729 82.9424873 56.0919457 C 82.9644387 55.4902346 82.767883 54.9008949 82.3890947 54.4326896 C 82.0411854 54.0162439 81.520451 53.7835742 80.9779435 53.8021722 C 80.7208342 53.8011363 80.4663538 53.8538918 80.2308635 53.9570361 C 79.9642963 54.0777638 79.7164347 54.2360837 79.4948513 54.4271587 L 79.516987 58.3540649 Z M 89.5167918 52.3254342 C 90.3028815 52.2658815 91.0852773 52.4809209 91.7303623 52.9338282 C 92.2384221 53.3474583 92.5197909 53.9776209 92.4885102 54.6318003 L 92.4885102 58.2711021 C 92.4885102 58.5531757 92.5991887 58.691447 92.8316136 58.691447 C 92.9714931 58.6792473 93.1072434 58.6377911 93.2300563 58.5697682 C 93.3890033 58.4979882 93.5363507 58.402918 93.6672365 58.2876947 L 93.6672365 59.3938655 C 93.1099155 59.7727858 92.458923 59.9909386 91.7857016 60.0243828 C 91.5058435 60.0410678 91.2266775 59.9818257 90.9777483 59.8529263 C 90.769765 59.7042271 90.6286385 59.4797419 90.5848396 59.2279399 C 89.9352608 59.7250566 89.1448794 60.0038598 88.3269976 60.0243828 C 87.8104938 60.0317793 87.3124322 59.8326653 86.9435161 59.4712974 C 86.5828173 59.1385104 86.3814702 58.6676197 86.3901234 58.1770776 C 86.3542768 57.6151351 86.5548861 57.0637659 86.9435161 56.6560928 C 87.5261821 56.1799142 88.2122182 55.846557 88.9467974 55.6826625 L 90.5350342 55.2180708 L 90.5350342 54.8751579 C 90.5350342 54.150616 90.0923201 53.7689871 89.2124258 53.7689871 C 88.746884 53.7724917 88.2878036 53.8782293 87.8676817 54.0787149 C 87.4034713 54.3012306 86.9878416 54.6132497 86.644684 54.9968366 L 86.644684 53.2878028 C 87.4630652 52.6468829 88.4772513 52.3070555 89.5167918 52.3254342 L 89.5167918 52.3254342 Z M 88.3214637 57.9115966 C 88.3109022 58.1562886 88.4055613 58.3938113 88.5815582 58.5642374 C 88.7535199 58.7298236 88.9847898 58.8194906 89.2234937 58.8131258 C 89.7125857 58.7854207 90.1731422 58.574038 90.5128985 58.2213244 L 90.5128985 56.2634022 C 90.0709721 56.4181401 89.6401633 56.6029339 89.2234937 56.8164876 C 88.9674855 56.9408632 88.7367107 57.1115042 88.5428208 57.3197953 C 88.4004579 57.4841749 88.3219036 57.6941911 88.3214637 57.9115966 L 88.3214637 57.9115966 Z M 99.3561127 52.3254342 C 100.077056 52.2906203 100.776986 52.5736716 101.270851 53.0997538 C 101.764522 53.6727739 102.019963 54.4129443 101.984728 55.1682931 L 101.984728 59.8971732 L 100.031252 59.8971732 L 100.031252 55.3674039 C 100.052703 54.9576139 99.9314622 54.5530494 99.6881483 54.2225171 C 99.4571758 53.9398566 99.1067075 53.782131 98.7418469 53.7966414 C 98.4365248 53.7964588 98.1387009 53.8911684 97.8896223 54.0676532 C 97.551866 54.3148756 97.2549653 54.6134778 97.009728 54.9525898 L 97.009728 59.8971732 L 95.0507181 59.8971732 L 95.0507181 52.4637056 L 97.009728 52.4637056 L 97.009728 53.509037 C 97.3127167 53.1327747 97.6893242 52.822246 98.1165133 52.5964461 C 98.5039616 52.4137906 98.9277463 52.3211391 99.3561127 52.3254342 Z M 109.228637 52.635162 L 109.228637 48.7635643 L 111.182113 48.7635643 L 111.182113 59.902704 L 107.740011 59.902704 C 106.690147 59.9530979 105.663171 59.5851035 104.884505 58.8794961 C 104.145039 58.1391843 103.754808 57.1199193 103.810923 56.0753531 C 103.802916 55.4044479 103.974895 54.7436496 104.308977 54.1616777 C 104.637269 53.5913837 105.118326 53.1240018 105.697992 52.8121494 C 106.271806 52.4882878 106.920558 52.3204685 107.579527 52.3254342 C 108.142877 52.3339666 108.700619 52.4387189 109.228637 52.635162 Z M 108.199327 58.4093735 L 109.228637 58.4093735 L 109.228637 54.1008383 C 108.84177 53.8952557 108.410585 53.7870447 107.972436 53.7855797 C 107.386745 53.7579765 106.817069 53.9812945 106.406335 54.3995044 C 106.002496 54.8355084 105.791099 55.4155315 105.819739 56.0089829 C 105.819739 57.6092433 106.612935 58.4093735 108.199327 58.4093735 L 108.199327 58.4093735 Z M 122.266568 48.7801569 C 123.338207 48.7612572 124.398243 49.0042845 125.354498 49.4881062 C 126.233024 49.9350857 126.963362 50.6266007 127.45739 51.4792136 C 128.460554 53.2753535 128.460554 55.4628159 127.45739 57.2589559 C 126.947883 58.1034088 126.203844 58.7817031 125.315761 59.2113473 C 124.326298 59.6889176 123.237845 59.9258183 122.139287 59.902704 L 117.601468 59.902704 L 117.601468 48.7801569 L 122.266568 48.7801569 Z M 122.039677 58.2213244 C 123.101262 58.2736193 124.137714 57.8876653 124.90625 57.1538697 C 126.352768 55.5470135 126.352768 53.1081932 124.90625 51.501337 C 124.106855 50.7807165 123.05393 50.4067278 121.978803 50.4615365 L 119.765233 50.4615365 L 119.765233 58.2047319 L 122.039677 58.2213244 Z M 133.627718 52.3254342 C 134.605564 52.276141 135.555329 52.6606935 136.22313 53.3762965 C 136.900512 54.1870721 137.242913 55.2255742 137.180499 56.2799947 L 137.180499 56.57313 L 131.912201 56.57313 C 131.954997 57.1623705 132.222406 57.7127301 132.659281 58.1107074 C 133.145456 58.4962082 133.754874 58.6926855 134.374798 58.6637928 C 134.835858 58.6643371 135.293248 58.5819026 135.725076 58.4204352 C 136.202726 58.2332279 136.654602 57.9860419 137.06982 57.6848316 L 137.06982 59.1394462 C 136.137054 59.7744854 135.026962 60.0978404 133.898881 60.0630988 C 132.837762 60.1043357 131.803366 59.7246049 131.021239 59.0067057 C 130.266993 58.2670455 129.864354 57.2408848 129.914454 56.1859702 C 129.874826 55.1628326 130.247628 54.1665897 130.949298 53.4205433 C 131.645351 52.6909825 132.619619 52.2926397 133.627718 52.3254342 Z M 135.337702 55.3895273 C 135.317532 54.9229914 135.144476 54.4760176 134.845182 54.1174309 C 134.550768 53.8049691 134.134112 53.6371865 133.705193 53.65837 C 133.265606 53.6425015 132.837686 53.8016392 132.515399 54.1008383 C 132.191008 54.4558681 131.996019 54.9099404 131.962006 55.3895273 L 135.337702 55.3895273 Z M 140.932501 52.4637056 L 140.932501 57.0709068 C 140.90345 57.4724078 141.032531 57.8693606 141.292206 58.1770776 C 141.545092 58.433541 141.895243 58.5703058 142.255109 58.5531757 C 142.593633 58.5523747 142.923822 58.4481625 143.201411 58.2545096 C 143.51611 58.0387496 143.769651 57.7453387 143.937423 57.4027581 L 143.937423 52.4637056 L 145.896433 52.4637056 L 145.896433 59.902704 L 143.937423 59.902704 L 143.937423 58.8905578 C 143.376457 59.5912559 142.538116 60.0132227 141.640844 60.0465062 C 140.916389 60.0764727 140.214304 59.7921653 139.715037 59.2666558 C 139.209421 58.7103413 138.944794 57.9765563 138.979025 57.2257708 L 138.979025 52.4637056 L 140.932501 52.4637056 Z M 150.223963 50.4891907 L 150.384447 50.4891907 L 150.384447 52.4637056 L 152.930053 52.4637056 L 152.930053 53.9459744 L 150.384447 53.9459744 L 150.384447 57.3806347 C 150.372477 57.6804921 150.479938 57.9728624 150.683279 58.1936702 C 150.904751 58.4079327 151.20559 58.5201838 151.513368 58.503398 C 152.071856 58.4728849 152.613923 58.3037018 153.090537 58.011152 L 153.090537 59.5763836 C 152.466902 59.8712769 151.788072 60.0314672 151.098324 60.0465062 C 150.377928 60.0906125 149.670026 59.8434824 149.13378 59.3606803 C 148.649527 58.8691385 148.394461 58.1966999 148.430971 57.5078443 L 148.430971 53.9459744 L 147.268847 53.9459744 L 147.268847 53.6528392 L 150.223963 50.4891907 Z M 156.947684 52.3254342 C 157.33752 52.3223414 157.726167 52.3688044 158.104274 52.4637056 C 158.500799 52.5699795 158.884822 52.7183116 159.249797 52.9061739 L 159.249797 54.4714055 C 158.875372 54.2390911 158.473957 54.0533541 158.054469 53.9183201 C 157.688865 53.7837285 157.303914 53.7090223 156.91448 53.697086 C 156.68402 53.6852841 156.455131 53.7410328 156.255943 53.8574808 C 156.101612 53.9556455 156.011018 54.1283102 156.017984 54.3110108 C 156.032112 54.4470851 156.104845 54.5702594 156.217205 54.6483929 C 156.567952 54.8841885 156.938229 55.0895781 157.323991 55.2623176 C 157.980697 55.5586393 158.584487 55.9603198 159.111449 56.4514512 C 159.45047 56.8026756 159.635654 57.274334 159.626104 57.7622636 C 159.654786 58.4119823 159.378506 59.0378704 158.879024 59.4547049 C 158.296248 59.8892918 157.57974 60.1064727 156.853607 60.0686296 C 156.352227 60.072969 155.852231 60.0153806 155.364981 59.8971732 C 154.969172 59.8017448 154.586387 59.6587445 154.224992 59.4712974 L 154.224992 57.8120413 C 154.941318 58.2752678 155.760166 58.5562938 156.610114 58.6306076 C 156.891916 58.6416254 157.171881 58.5807144 157.423601 58.4536203 C 157.606634 58.3641738 157.725686 58.1814451 157.733501 57.9779669 C 157.73115 57.8620881 157.692435 57.7498756 157.622823 57.6571774 C 157.525129 57.5436107 157.411413 57.4448635 157.285253 57.3640421 C 157.135837 57.2644867 156.670987 57.0211292 155.890704 56.6395002 C 155.388852 56.4216964 154.936876 56.1036066 154.562561 55.7047859 C 154.275829 55.3714267 154.122145 54.9441083 154.130915 54.5045907 C 154.113709 53.8837123 154.403468 53.2941718 154.905665 52.9282973 C 155.49943 52.5041529 156.218626 52.2918256 156.947684 52.3254342 L 156.947684 52.3254342 Z M 165.021682 52.3254342 C 165.831255 52.3134912 166.633156 52.4836116 167.368067 52.8232111 L 167.368067 54.4824672 C 166.775116 54.1090023 166.093005 53.9008543 165.392455 53.8796042 C 164.776083 53.8474975 164.174288 54.0740476 163.732277 54.5045907 C 163.291384 54.9544996 163.058658 55.5680756 163.090342 56.1970319 C 163.070545 56.8142 163.3022 57.4129751 163.732277 57.8562881 C 164.193561 58.306487 164.820209 58.5466021 165.464396 58.5199906 C 166.174116 58.4673729 166.867228 58.2796419 167.506415 57.9669052 L 167.506415 59.5487294 C 166.749968 59.8604243 165.939506 60.0201715 165.121293 60.018852 C 164.04637 60.0676587 162.994586 59.6967634 162.188312 58.9845823 C 161.431692 58.2694413 161.027104 57.2585331 161.081527 56.2191554 C 161.03567 55.1535078 161.436834 54.1170761 162.188312 53.3597039 C 162.956813 52.6508407 163.976967 52.2784525 165.021682 52.3254342 L 165.021682 52.3254342 Z M 171.258417 48.7801569 L 171.258417 53.509037 L 171.302689 53.509037 C 171.833252 52.771271 172.684687 52.3314016 173.593734 52.3254342 C 174.312395 52.2944994 175.009068 52.5770504 175.502939 53.0997538 C 176.001602 53.6573512 176.261846 54.3880126 176.227883 55.135108 L 176.227883 59.8971732 L 174.274407 59.8971732 L 174.274407 55.5112061 C 174.297969 55.0857645 174.17276 54.6653757 173.920236 54.3220725 C 173.68859 54.0260035 173.327387 53.8609734 172.951799 53.8796042 C 172.654119 53.8793232 172.36314 53.9679165 172.116176 54.1340234 C 171.785787 54.3650129 171.495947 54.6490848 171.258417 54.9747132 L 171.258417 59.8971732 L 169.299407 59.8971732 L 169.299407 48.7801569 L 171.258417 48.7801569 Z M 181.772877 52.3254342 C 182.750723 52.276141 183.700488 52.6606935 184.368289 53.3762965 C 185.04567 54.1870721 185.388072 55.2255742 185.325658 56.2799947 L 185.325658 56.57313 L 180.05736 56.57313 C 180.100156 57.1623705 180.367565 57.7127301 180.80444 58.1107074 C 181.290615 58.4962082 181.900033 58.6926855 182.519957 58.6637928 C 182.981017 58.6643371 183.438407 58.5819026 183.870235 58.4204352 C 184.347885 58.2332279 184.799761 57.9860419 185.214979 57.6848316 L 185.214979 59.1394462 C 184.282213 59.7744854 183.172121 60.0978404 182.044039 60.0630988 C 180.982921 60.1043357 179.948525 59.7246049 179.166398 59.0067057 C 178.413951 58.2658577 178.01164 57.2405338 178.059613 56.1859702 C 178.025528 55.163732 178.39756 54.1695463 179.094457 53.4205433 C 179.793107 52.6880513 180.772037 52.2894495 181.783945 52.3254342 L 181.772877 52.3254342 Z M 183.48286 55.3895273 C 183.462691 54.9229914 183.289635 54.4760176 182.990341 54.1174309 C 182.695926 53.8049691 182.279271 53.6371865 181.850352 53.65837 C 181.410765 53.6425015 180.982845 53.8016392 180.660558 54.1008383 C 180.336167 54.4558681 180.141178 54.9099404 180.107165 55.3895273 L 183.48286 55.3895273 Z M 191.47385 52.3254342 C 191.739685 52.3259496 192.002203 52.3844642 192.243066 52.4968907 C 192.563472 52.6608945 192.862669 52.8633436 193.134028 53.0997538 L 192.431219 54.8087876 C 192.046538 54.4661123 191.569037 54.2448131 191.058805 54.1727394 C 190.731267 54.1850262 190.41661 54.3034421 190.162309 54.5101215 C 189.858733 54.7487109 189.615997 55.0557531 189.453967 55.4061198 C 189.284272 55.7505318 189.193528 56.1284194 189.188338 56.5122906 L 189.188338 59.902704 L 187.229328 59.902704 L 187.229328 52.4637056 L 189.188338 52.4637056 L 189.188338 54.3607885 L 189.221542 54.3607885 C 189.481137 53.7813847 189.845039 53.2545823 190.295124 52.8066185 C 190.613571 52.5038823 191.034401 52.3320898 191.47385 52.3254342 L 191.47385 52.3254342 Z M 2.21357052 66.7056543 L 2.21357052 77.8337322 L 0.0498053367 77.8337322 L 0.0498053367 66.716716 L 2.21357052 66.7056543 Z M 9.09224091 70.2454007 C 9.81289133 70.2158118 10.5104333 70.5027567 11.0014455 71.030782 C 11.4951159 71.6038022 11.7505571 72.3439725 11.715322 73.0993213 L 11.715322 77.8282014 L 9.76184599 77.8282014 L 9.76184599 73.2984321 C 9.78489835 72.885881 9.66142467 72.4784482 9.41320863 72.1480145 C 9.1822072 71.8659916 8.83115484 71.710055 8.46690723 71.7276696 C 8.16261421 71.7286925 7.8656685 71.8211956 7.61468259 71.9931506 C 7.27888549 72.24297 6.98392087 72.5433684 6.74032223 72.883618 L 6.74032223 77.8282014 L 4.78131232 77.8282014 L 4.78131232 70.4057955 L 6.74032223 70.4057955 L 6.74032223 71.4511269 C 7.04089443 71.0724869 7.4180419 70.7615129 7.84710749 70.538536 C 8.23430024 70.3470518 8.66024176 70.2467747 9.09224091 70.2454007 L 9.09224091 70.2454007 Z M 15.8934363 66.7001234 L 15.8934363 77.8282014 L 13.9344264 77.8282014 L 13.9344264 66.716716 L 15.8934363 66.7001234 Z M 21.3000823 70.3892029 L 18.2619568 74.0782825 L 21.6542536 77.844794 L 19.1861225 77.844794 L 15.9266399 74.0782825 L 18.9924351 70.4057955 L 21.3000823 70.3892029 Z M 25.3951878 70.2454007 C 26.1808305 70.1904023 26.9617275 70.4050297 27.6087583 70.8537947 C 28.1156402 71.2702818 28.394881 71.9023289 28.3613723 72.5572977 L 28.3613723 76.1965995 C 28.3613723 76.4786731 28.4775847 76.6169444 28.7044757 76.6169444 C 28.8461578 76.6050189 28.9837705 76.5635696 29.1084523 76.4952656 C 29.2649972 76.4221875 29.4103371 76.3272103 29.5400986 76.2131921 L 29.5400986 77.3193628 C 28.9905932 77.7111485 28.3430744 77.9428238 27.6696315 77.9885962 C 27.3874805 78.0037594 27.1064577 77.9426183 26.8561443 77.8116088 C 26.6489382 77.6646336 26.5078261 77.4421579 26.4632356 77.1921532 C 25.8075873 77.6936918 25.0087538 77.9727407 24.1832579 77.9885962 C 23.6670949 77.9941618 23.169709 77.7953179 22.7997763 77.4355108 C 22.4364186 77.1022823 22.2346947 76.6284943 22.2463837 76.1357601 C 22.2112179 75.5739155 22.411731 75.0228104 22.7997763 74.6147753 C 23.3858909 74.1418719 24.0733568 73.8106329 24.8085916 73.6468759 L 26.3968284 73.1822841 L 26.3968284 72.8393712 C 26.3968284 72.1148294 25.9541143 71.7332004 25.0742201 71.7332004 C 24.6069763 71.7373267 24.1462259 71.843014 23.723942 72.0429283 C 23.261255 72.2653112 22.8474141 72.5773996 22.5064783 72.96105 L 22.5064783 71.2022385 C 23.328944 70.5576167 24.3503111 70.2193055 25.3951878 70.2454007 L 25.3951878 70.2454007 Z M 24.1998597 75.837094 C 24.1885644 76.0808286 24.281052 76.3179476 24.4544203 76.4897348 C 24.6267204 76.6547907 24.8577598 76.7443684 25.0963558 76.7386232 C 25.5872591 76.7117479 26.0498383 76.5003441 26.3912945 76.1468218 L 26.3912945 74.1888996 C 25.9480208 74.3401576 25.5169636 74.525058 25.1018897 74.7419849 C 24.8451799 74.8678873 24.6128464 75.0382954 24.4156828 75.2452926 C 24.2724321 75.4152967 24.1957481 75.6314649 24.1998597 75.8536866 L 24.1998597 75.837094 Z M 33.336372 70.2454007 C 33.7260679 70.2447546 34.1144137 70.2911817 34.4929626 70.3836721 C 34.8886688 70.4924399 35.2724376 70.640674 35.6384854 70.8261404 L 35.6384854 72.3969029 C 35.2640599 72.1645885 34.862645 71.9788515 34.4431573 71.8438175 C 34.0782944 71.7065909 33.6929017 71.6317989 33.3031685 71.6225834 C 33.0727086 71.6107815 32.8438196 71.6665302 32.6446312 71.7829781 C 32.4885364 71.8795116 32.3973606 72.0532852 32.4066724 72.2365081 C 32.4201548 72.3713117 32.493228 72.4930328 32.6058937 72.5683594 C 32.9552406 72.8064312 33.3257247 73.0119357 33.712679 73.1822841 C 34.367152 73.4826215 34.9703304 73.8838951 35.5001372 74.3714177 C 35.8381174 74.7233091 36.0231253 75.1945191 36.0147923 75.6822301 C 36.0452105 76.3322736 35.7686044 76.9588993 35.2677123 77.3746714 C 34.6756702 77.8202528 33.9430295 78.0381562 33.2035578 77.9885962 C 32.7019481 77.9911256 32.2019488 77.9316792 31.7149316 77.8116088 C 31.3186469 77.7203457 30.9355794 77.5790983 30.5749428 77.3912639 L 30.5749428 75.7762546 C 31.3017548 76.2353304 32.1303214 76.5088335 32.9877347 76.5726976 C 33.2702975 76.5850775 33.5510671 76.5220826 33.8012218 76.3901794 C 33.9825636 76.3016702 34.1013187 76.121517 34.1111217 75.9200568 C 34.1087706 75.804178 34.0700551 75.6919655 34.0004432 75.5992673 C 33.9027495 75.4857007 33.7890339 75.3869534 33.6628737 75.306132 C 33.5189916 75.2065767 33.0541418 74.9632191 32.2683242 74.5815902 C 31.7664728 74.3637863 31.3144966 74.0456965 30.9401819 73.6468759 C 30.6543578 73.3129884 30.5008028 72.8860277 30.5085357 72.4466806 C 30.491329 71.8258022 30.7810887 71.2362618 31.2832854 70.8703872 C 31.8772336 70.4359952 32.6009836 70.2156762 33.336372 70.2454007 L 33.336372 70.2454007 Z M 40.2537799 70.2454007 C 40.6434567 70.2450767 41.031764 70.2914992 41.4103705 70.3836721 C 41.8060767 70.4924399 42.1898455 70.640674 42.5558932 70.8261404 L 42.5558932 72.3969029 C 42.1814678 72.1645885 41.7800529 71.9788515 41.3605651 71.8438175 C 40.9957023 71.7065909 40.6103095 71.6317989 40.2205763 71.6225834 C 39.9900245 71.6097949 39.7608549 71.665612 39.5620391 71.7829781 C 39.4047176 71.8789583 39.3115859 72.0524256 39.3185463 72.2365081 C 39.3320287 72.3713117 39.405102 72.4930328 39.5177677 72.5683594 C 39.867594 72.8056532 40.2380057 73.0111175 40.6245529 73.1822841 C 41.279026 73.4826215 41.8822044 73.8838951 42.4120111 74.3714177 C 42.7499913 74.7233091 42.9349992 75.1945191 42.9266663 75.6822301 C 42.9583926 76.3337148 42.6791572 76.9616458 42.1740523 77.3746714 C 41.5919856 77.8148311 40.8716765 78.0325693 40.1431014 77.9885962 C 39.6414917 77.9911256 39.1414924 77.9316792 38.6544752 77.8116088 C 38.2581905 77.7203457 37.875123 77.5790983 37.5144864 77.3912639 L 37.5144864 75.7762546 C 38.2410051 76.2359508 39.069731 76.5095065 39.9272782 76.5726976 C 40.2097701 76.5842845 40.4903356 76.5213354 40.7407654 76.3901794 C 40.9221072 76.3016702 41.0408623 76.121517 41.0506653 75.9200568 C 41.0483142 75.804178 41.0095987 75.6919655 40.9399867 75.5992673 C 40.8422931 75.4857007 40.7285775 75.3869534 40.6024172 75.306132 C 40.4530012 75.2065767 39.9881514 74.9632191 39.2078678 74.5815902 C 38.7060163 74.3637863 38.2540402 74.0456965 37.8797255 73.6468759 C 37.5939014 73.3129884 37.4403464 72.8860277 37.4480793 72.4466806 C 37.4308726 71.8258022 37.7206323 71.2362618 38.2228289 70.8703872 C 38.8107536 70.4407685 39.5258912 70.2206985 40.2537799 70.2454007 L 40.2537799 70.2454007 Z M 48.4439908 70.2454007 C 49.1755768 70.2372863 49.8984948 70.4041668 50.5524167 70.7321159 C 51.1645627 71.0392827 51.6740914 71.5177817 52.0189072 72.1092985 C 52.3712672 72.7109329 52.5512298 73.3978552 52.5390963 74.094875 C 52.5545416 74.8017232 52.3827174 75.5000869 52.0410429 76.1191675 C 51.6968345 76.7084207 51.1868496 77.1835012 50.5745524 77.4852885 C 49.2335153 78.1562983 47.6544663 78.1562983 46.3134292 77.4852885 C 45.7078177 77.1800585 45.2040732 76.7054181 44.8635405 76.1191675 C 44.521866 75.5000869 44.3500418 74.8017232 44.3654871 74.094875 C 44.3586817 73.390595 44.5504666 72.6986359 44.9188798 72.0982368 C 45.2677683 71.5154977 45.7767762 71.0451667 46.3853702 70.7431776 C 47.0222397 70.4160854 47.7279524 70.2454433 48.4439908 70.2454007 L 48.4439908 70.2454007 Z M 46.4185738 74.1169985 C 46.387878 74.7571968 46.5838082 75.3877418 46.9719664 75.8979334 C 47.3277271 76.3360855 47.8687001 76.5818459 48.432923 76.5616359 C 49.0049746 76.5873971 49.5580896 76.3536732 49.9381509 75.9255877 C 50.3364241 75.4036041 50.5329159 74.7555414 50.4915435 74.1004059 C 50.5329522 73.4690716 50.3354284 72.8452427 49.9381509 72.3526561 C 49.5562097 71.9322504 49.0059228 71.7049518 48.4384569 71.7332004 C 47.8806238 71.717166 47.3462447 71.9577069 46.9885682 72.3858412 C 46.59442 72.8745063 46.3917992 73.4898957 46.4185738 74.1169985 L 46.4185738 74.1169985 Z M 58.5323384 73.2320618 L 58.5323384 75.1125521 L 54.4040294 75.1125521 L 54.4040294 73.2320618 L 58.5323384 73.2320618 Z M 62.7768599 66.7388394 L 62.7768599 73.2154693 C 62.7529386 73.7605199 62.8552031 74.3037348 63.0756919 74.8028243 C 63.2964845 75.2153301 63.6356767 75.5524078 64.049663 75.7707238 C 64.5350986 76.0331961 65.0805844 76.1647263 65.6323659 76.1523527 C 66.2066828 76.1682292 66.776306 76.0448793 67.2925438 75.7928472 C 67.7240057 75.5767973 68.0764078 75.2303966 68.2997184 74.8028243 C 68.5364155 74.2576179 68.6443475 73.6652679 68.6151522 73.0716671 L 68.6151522 66.716716 L 70.7678495 66.716716 L 70.7678495 73.3537406 C 70.84609 74.6453364 70.354715 75.9064382 69.4231054 76.8049934 C 68.3495752 77.6546988 66.9989487 78.0764121 65.6323659 77.9885962 C 64.7072821 78.0105137 63.7893733 77.8213592 62.9484116 77.4355108 C 62.2209304 77.0951326 61.6161014 76.5389216 61.2162927 75.8426249 C 60.8040729 75.0969873 60.5977944 74.2551511 60.6186287 73.4035183 L 60.6186287 66.7111851 L 62.7768599 66.7388394 Z M 77.5469092 70.2454007 C 78.2675596 70.2158118 78.9651016 70.5027567 79.4561138 71.030782 C 79.9497842 71.6038022 80.2052254 72.3439725 80.1699903 73.0993213 L 80.1699903 77.8282014 L 78.2165143 77.8282014 L 78.2165143 73.2984321 C 78.2411524 72.8865559 78.1196588 72.4791906 77.8734109 72.1480145 C 77.6418627 71.8667091 77.2911906 71.7109414 76.9271095 71.7276696 C 76.6227107 71.7280036 76.3255661 71.8205687 76.0748848 71.9931506 C 75.7378137 72.241507 75.4426356 72.5421228 75.2005245 72.883618 L 75.2005245 77.8282014 L 73.2415145 77.8282014 L 73.2415145 70.4057955 L 75.2005245 70.4057955 L 75.2005245 71.4511269 C 75.5010967 71.0724869 75.8782441 70.7615129 76.3073097 70.538536 C 76.6924896 70.3469422 77.1166639 70.2466352 77.5469092 70.2454007 L 77.5469092 70.2454007 Z M 84.4311135 68.4146881 L 84.5915974 68.4146881 L 84.5915974 70.3892029 L 87.1427374 70.3892029 L 87.1427374 71.9046569 L 84.5915974 71.9046569 L 84.5915974 75.3393172 C 84.5789314 75.636392 84.6914661 75.9251661 84.9018371 76.1354204 C 85.1122082 76.3456747 85.4011427 76.4581469 85.6983826 76.4454879 C 86.2574848 76.4139984 86.7997537 76.2428507 87.2755516 75.9477111 L 87.2755516 77.5184736 C 86.6519164 77.8133669 85.9730868 77.9735571 85.2833382 77.9885962 C 84.5629429 78.0327024 83.8550405 77.7855724 83.3187943 77.3027703 C 82.8331078 76.8117935 82.5760908 76.1395054 82.6104518 75.4499342 L 82.6104518 71.9046569 L 81.4483272 71.9046569 L 81.4483272 71.5838674 L 84.4311135 68.4146881 Z M 92.0734657 70.2454007 C 93.0523094 70.1997597 94.0022933 70.5835825 94.6744111 71.296263 C 95.3491671 72.1103759 95.6893827 73.1502252 95.6262464 74.2054921 L 95.6262464 74.4986274 L 90.3634825 74.4986274 C 90.4034153 75.0858612 90.6691503 75.6348742 91.1050286 76.0306739 C 91.5921745 76.4183624 92.204146 76.6150285 92.8260797 76.5837593 C 93.2870753 76.5835866 93.744339 76.501175 94.1763577 76.3404017 C 94.6529134 76.152199 95.1030636 75.9030806 95.5155679 75.5992673 L 95.5155679 77.0594127 C 94.5824737 77.6937573 93.4726127 78.0170451 92.3446281 77.9830653 C 91.2825417 78.0240225 90.2475938 77.6421001 89.4669864 76.9211414 C 88.7136129 76.1831854 88.3109887 75.1590757 88.3602012 74.1059367 C 88.320331 73.0837836 88.6909272 72.0881104 89.3895115 71.3405098 C 90.0884828 70.6118614 91.0639696 70.2138425 92.0734657 70.2454007 Z M 93.7889829 73.3150246 C 93.7644498 72.8484332 93.589758 72.4022463 93.2909295 72.0429283 C 92.9990986 71.7300714 92.583882 71.5620526 92.1564746 71.5838674 C 91.7157753 71.5650209 91.2856889 71.7222338 90.9611465 72.0208048 C 90.6406374 72.380502 90.4463368 72.8349131 90.4077539 73.3150246 L 93.7889829 73.3150246 Z M 101.746769 70.2454007 C 102.012976 70.248001 102.275437 70.3083903 102.515985 70.4223881 C 102.832273 70.580932 103.1278 70.7778405 103.395879 71.0086586 L 102.69307 72.7232233 C 102.311969 72.3784092 101.83553 72.1567082 101.326191 72.0871751 C 100.997744 72.0948734 100.68165 72.2138302 100.429694 72.4245572 C 100.126118 72.6631466 99.8833818 72.9701888 99.7213519 73.3205555 C 99.5470137 73.6635168 99.4542185 74.0420624 99.4501895 74.4267263 L 99.4501895 77.8171397 L 97.4911796 77.8171397 L 97.4911796 70.4057955 L 99.4501895 70.4057955 L 99.4501895 72.3028784 L 99.483393 72.3028784 C 99.7413225 71.7195357 100.107483 71.1903057 100.562509 70.7431776 C 100.879141 70.4321402 101.302885 70.2540291 101.746769 70.2454007 Z M 108.940873 70.2454007 C 109.660155 70.2144313 110.356558 70.5017405 110.844544 71.030782 C 111.338214 71.6038022 111.593655 72.3439725 111.55842 73.0993213 L 111.55842 77.8282014 L 109.610478 77.8282014 L 109.610478 73.2984321 C 109.633531 72.885881 109.510057 72.4784482 109.261841 72.1480145 C 109.030293 71.8667091 108.679621 71.7109414 108.315539 71.7276696 C 108.011246 71.7286925 107.714301 71.8211956 107.463315 71.9931506 C 107.126244 72.241507 106.831066 72.5421228 106.588954 72.883618 L 106.588954 77.8282014 L 104.629945 77.8282014 L 104.629945 70.4057955 L 106.588954 70.4057955 L 106.588954 71.4511269 C 106.889527 71.0724869 107.266674 70.7615129 107.69574 70.538536 C 108.086079 70.3448286 108.516134 70.2444751 108.951941 70.2454007 L 108.940873 70.2454007 Z M 117.114482 70.2454007 C 118.092328 70.1961076 119.042093 70.5806601 119.709894 71.296263 C 120.386144 72.1098316 120.7283 73.1495661 120.667263 74.2054921 L 120.667263 74.4986274 L 115.398965 74.4986274 C 115.443142 75.0859107 115.710436 75.6340548 116.146045 76.0306739 C 116.631001 76.4184459 117.241299 76.6152071 117.861562 76.5837593 C 118.322622 76.5843036 118.780012 76.5018691 119.21184 76.3404017 C 119.690164 76.1522912 120.142156 75.903183 120.556584 75.5992673 L 120.556584 77.0594127 C 119.622678 77.6920339 118.513388 78.0151556 117.385645 77.9830653 C 116.323364 78.0252472 115.287962 77.6431571 114.508003 76.9211414 C 113.754629 76.1831854 113.352005 75.1590757 113.401218 74.1059367 C 113.363457 73.0831003 113.735998 72.0875529 114.436062 71.3405098 C 115.135121 70.6086175 116.113769 70.2101304 117.12555 70.2454007 L 117.114482 70.2454007 Z M 118.824465 73.3150246 C 118.804296 72.8484888 118.63124 72.4015149 118.331946 72.0429283 C 118.037966 71.7298318 117.621004 71.5619258 117.191957 71.5838674 C 116.753147 71.5665046 116.325329 71.7236154 116.002163 72.0208048 C 115.678829 72.3787023 115.484099 72.8341162 115.44877 73.3150246 L 118.824465 73.3150246 Z M 124.491206 66.678 L 124.491206 71.4124109 L 124.541011 71.4124109 C 125.076283 70.6793454 125.929572 70.2457453 126.837591 70.2454007 C 127.558627 70.2164743 128.256898 70.500872 128.752329 71.0252511 C 129.249788 71.5857609 129.509745 72.3175986 129.477274 73.0661362 L 129.477274 77.8282014 L 127.523798 77.8282014 L 127.523798 73.4422343 C 127.544566 73.0154111 127.419691 72.5941908 127.169626 72.2475698 C 126.935664 71.9544514 126.576061 71.7901529 126.201189 71.8051015 C 125.901147 71.8060259 125.608228 71.8965493 125.360032 72.0650517 C 125.029578 72.2959624 124.739727 72.5800462 124.502274 72.9057415 L 124.502274 77.8282014 L 122.543264 77.8282014 L 122.543264 66.716716 L 124.491206 66.678 Z M 136.007307 70.2454007 C 136.522357 70.2279556 137.030361 70.3688822 137.462729 70.6491531 C 137.861325 70.9217173 138.16959 71.3068348 138.348157 71.7553239 C 138.697425 71.3145724 139.122881 70.9399297 139.604359 70.6491531 C 140.024953 70.4131395 140.499971 70.2911141 140.982306 70.2951784 C 141.697455 70.2687741 142.389933 70.5484278 142.885977 71.0639671 C 143.387196 71.6266552 143.647498 72.3634356 143.610921 73.1159139 L 143.610921 77.8779791 L 141.668513 77.8779791 L 141.668513 73.453296 C 141.693089 73.0224135 141.576528 72.59526 141.336478 72.2365081 C 141.112853 71.9329527 140.749952 71.7641098 140.373574 71.788509 C 139.77591 71.788509 139.200382 72.1756687 138.646989 72.9444574 L 138.646989 77.8890408 L 136.68798 77.8890408 L 136.68798 73.4201109 C 136.713049 72.993627 136.589886 72.5715876 136.339342 72.2254464 C 136.113487 71.9381 135.763961 71.7757634 135.398575 71.788509 C 135.083715 71.7874973 134.776293 71.8841173 134.51868 72.0650517 C 134.190412 72.311923 133.902853 72.6086534 133.666456 72.9444574 L 133.666456 77.8890408 L 131.707446 77.8890408 L 131.707446 70.4057955 L 133.666456 70.4057955 L 133.666456 71.4511269 C 133.978713 71.0886195 134.353596 70.7851322 134.773241 70.5551286 C 135.153732 70.3543143 135.577031 70.2480742 136.007307 70.2454007 Z M 149.161449 70.2454007 C 150.140421 70.1990099 151.090706 70.5829547 151.762395 71.296263 C 152.437151 72.1103759 152.777366 73.1502252 152.71423 74.2054921 L 152.71423 74.4986274 L 147.451466 74.4986274 C 147.491399 75.0858612 147.757134 75.6348742 148.193012 76.0306739 C 148.680158 76.4183624 149.29213 76.6150285 149.914063 76.5837593 C 150.375059 76.5835866 150.832323 76.501175 151.264341 76.3404017 C 151.740897 76.152199 152.191047 75.9030806 152.603552 75.5992673 L 152.603552 77.0594127 C 151.666488 77.6990884 150.550223 78.024485 149.41601 77.9885962 C 148.353924 78.0295534 147.318976 77.6476309 146.538368 76.9266722 C 145.784995 76.1887162 145.382371 75.1646065 145.431583 74.1114676 C 145.391713 73.0893145 145.762309 72.0936413 146.460893 71.3460407 C 147.162796 70.6109763 148.145394 70.2105082 149.161449 70.2454007 Z M 150.876967 73.3150246 C 150.850946 72.8497312 150.678578 72.4045323 150.384447 72.0429283 C 150.090033 71.7304664 149.673377 71.5626839 149.244458 71.5838674 C 148.803759 71.5650209 148.373673 71.7222338 148.04913 72.0208048 C 147.728621 72.380502 147.53432 72.8349131 147.495738 73.3150246 L 150.876967 73.3150246 Z M 158.890092 70.2454007 C 159.610742 70.2158118 160.308284 70.5027567 160.799296 71.030782 C 161.292967 71.6038022 161.548408 72.3439725 161.513173 73.0993213 L 161.513173 77.8282014 L 159.559697 77.8282014 L 159.559697 73.2984321 C 159.581983 72.8868307 159.460723 72.4802474 159.216594 72.1480145 C 158.985045 71.8667091 158.634373 71.7109414 158.270292 71.7276696 C 157.965893 71.7280036 157.668749 71.8205687 157.418067 71.9931506 C 157.080996 72.241507 156.785818 72.5421228 156.543707 72.883618 L 156.543707 77.8282014 L 154.579163 77.8282014 L 154.579163 70.4057955 L 156.543707 70.4057955 L 156.543707 71.4511269 C 156.845104 71.0732968 157.222066 70.7624765 157.650492 70.538536 C 158.036206 70.3484213 158.460033 70.2481967 158.890092 70.2454007 Z" stroke-linecap="round" />
</g>
<g transform="matrix(NaN NaN NaN NaN 0 0)"  >
<g style=""   >
</g>
</g>
<g transform="matrix(NaN NaN NaN NaN 0 0)"  >
<g style=""   >
</g>
</g>
<g transform="matrix(NaN NaN NaN NaN 0 0)"  >
<g style=""   >
</g>
</g>
<g transform="matrix(NaN NaN NaN NaN 0 0)"  >
<g style=""   >
</g>
</g>
<g transform="matrix(NaN NaN NaN NaN 0 0)"  >
<g style=""   >
</g>
</g>
<g transform="matrix(NaN NaN NaN NaN 0 0)"  >
<g style=""   >
</g>
</g>
<g transform="matrix(NaN NaN NaN NaN 0 0)"  >
<g style=""   >
</g>
</g>
<g transform="matrix(NaN NaN NaN NaN 0 0)"  >
<g style=""   >
</g>
</g>
</svg>