<?xml version="1.0" encoding="UTF-8"?>
<svg xmlns="http://www.w3.org/2000/svg" xmlns:xlink="http://www.w3.org/1999/xlink" width="16px" height="16px" viewBox="0 0 16 16" version="1.1">
  <title>3E6477B0-F5F7-4396-94DB-A3B2EF4859B3</title>
  <g id="Layout" stroke="none" stroke-width="1" fill="none" fill-rule="evenodd">
    <g id="BDIU---Startseite-Icons" transform="translate(-1100.000000, -31.000000)" fill="#52565F" fill-rule="nonzero">
      <g id="l/header" transform="translate(88.000000, 20.000000)">
        <path d="M1023.07692,17.7692308 C1023.07692,15.3942308 1021.14423,13.4615385 1018.76923,13.4615385 C1016.39423,13.4615385 1014.46154,15.3942308 1014.46154,17.7692308 C1014.46154,20.1442308 1016.39423,22.0769231 1018.76923,22.0769231 C1021.14423,22.0769231 1023.07692,20.1442308 1023.07692,17.7692308 Z M1028,25.7692308 C1028,26.4423077 1027.44231,27 1026.76923,27 C1026.44231,27 1026.125,26.8653846 1025.90385,26.6346154 L1022.60577,23.3461538 C1021.48077,24.125 1020.13462,24.5384615 1018.76923,24.5384615 C1015.02885,24.5384615 1012,21.5096154 1012,17.7692308 C1012,14.0288462 1015.02885,11 1018.76923,11 C1022.50962,11 1025.53846,14.0288462 1025.53846,17.7692308 C1025.53846,19.1346154 1025.125,20.4807692 1024.34615,21.6057692 L1027.64423,24.9038462 C1027.86538,25.125 1028,25.4423077 1028,25.7692308 Z" id="search"></path>
      </g>
    </g>
  </g>
</svg>
