<?xml version="1.0" encoding="UTF-8"?>
<svg width="163px" height="34px" viewBox="0 0 163 34" version="1.1" xmlns="http://www.w3.org/2000/svg" xmlns:xlink="http://www.w3.org/1999/xlink">
    <title>1038D427-7D20-412A-A6E7-C03658C6AD25</title>
    <g id="Layout" stroke="none" stroke-width="1" fill="none" fill-rule="evenodd">
        <g id="BDIU---Startseite-Icons" transform="translate(-88.000000, -20.000000)" fill="#006982" fill-rule="nonzero">
            <g id="bdiu-logo" transform="translate(88.000000, 20.000000)">
                <path d="M60.0336746,0.00324412159 C63.128194,0.00324412159 65.6494662,0.803685105 67.5974915,2.40456707 C69.4630976,3.84196265 70.542918,6.06617207 70.5144564,8.41291924 C70.5384258,9.8518345 70.1111049,11.2624455 69.2918677,12.4487561 C68.3907069,13.6876679 67.1613598,14.653456 65.7407799,15.2385284 L65.7407799,15.5260818 C67.8814017,15.9288515 69.8236168,17.0358221 71.2551119,18.6689897 C72.5576466,20.2013442 73.2570065,22.1515397 73.2234291,24.1577279 C73.2517343,25.9238632 72.7520682,27.6585886 71.787775,29.1419865 C70.8214532,30.6157152 69.4323339,31.7668828 67.8004108,32.4463279 C65.8978514,33.2217671 63.8546904,33.5979007 61.7990725,33.5511383 L47.6860353,33.5511383 L47.6860353,0.00324412159 L60.0336746,0.00324412159 Z M58.2936417,13.936971 C60.0184557,13.936971 61.371251,13.5283425 62.3520276,12.7110855 C63.3713308,11.8762889 63.9353044,10.6125293 63.8739224,9.30080335 C63.9244807,8.1148561 63.4161494,6.97326865 62.4991441,6.21338813 C61.4675889,5.41509211 60.1826212,5.01062549 58.8770346,5.07326421 L54.1895988,5.07326421 L54.1895988,13.936971 L58.2936417,13.936971 Z M59.8155364,28.4912078 C62.0239748,28.4912078 63.691295,28.0792161 64.8174971,27.2552327 C65.9585225,26.4013806 66.5929322,25.0354108 66.5068003,23.6179347 C66.5541841,22.2835563 65.9230664,21.0150614 64.8276431,20.2429661 C63.7115869,19.4156196 62.2099841,19.0019463 60.3228346,19.0019463 L54.1895988,19.0019463 L54.1895988,28.4912078 L59.8155364,28.4912078 Z M93.1095204,0.00324412159 C96.3599442,-0.0552919733 99.5752771,0.679121032 102.474246,2.14223767 C105.133692,3.49532466 107.346852,5.57887894 108.850985,8.14554504 C110.380036,10.788903 111.16345,13.7936028 111.118608,16.8427735 C111.176837,19.906666 110.387128,22.9275359 108.835766,25.5753156 C107.298878,28.1274809 105.045403,30.1773058 102.352494,31.4726823 C99.3481413,32.9091066 96.046774,33.6244603 92.7138278,33.5612279 L78.9812642,33.5612279 L78.9812642,0.00324412159 L93.1095204,0.00324412159 Z M92.4348137,28.4912078 C96.0400133,28.4912078 98.9349953,27.4149846 101.11976,25.2625383 C103.304524,23.1100919 104.395215,20.2866877 104.391841,16.7923256 C104.391841,13.1735252 103.292687,10.3148074 101.094395,8.21617219 C98.8961024,6.11753701 95.9368626,5.06821942 92.2166755,5.06821942 L85.5000467,5.06821942 L85.5000467,28.4912078 L92.4348137,28.4912078 Z M124.130808,0.00324412159 L124.130808,33.5612279 L117.612026,33.5612279 L117.612026,0.00324412159 L124.130808,0.00324412159 Z M138.740998,0.00324412159 L138.740998,19.5316499 C138.667735,21.1736786 138.97676,22.8103529 139.643989,24.3141166 C140.315612,25.5629882 141.347319,26.5836926 142.60661,27.2451431 C144.07333,28.0361657 145.722323,28.4326466 147.390433,28.3953566 C149.145186,28.4457464 150.886017,28.0718162 152.463415,27.3056807 C153.768455,26.6554522 154.833696,25.6120197 155.507205,24.3242062 C156.153165,23.0663703 156.476145,21.3259157 156.476145,19.1028422 L156.476145,0.00324412159 L163,0.00324412159 L163,19.9402784 C163,24.4536893 161.63875,27.924509 158.916249,30.3527375 C156.193749,32.7809661 152.345046,33.9950803 147.370141,33.9950803 C144.573143,34.0594213 141.79791,33.4919347 139.253369,32.3353424 C137.048845,31.3133574 135.21522,29.6396716 134.002832,27.5427861 C132.754172,25.2921837 132.129171,22.7520998 132.191777,20.1824286 L132.191777,0.00324412159 L138.740998,0.00324412159 Z M0,23.4968596 L0,33.5612279 L10.9677881,33.5612279 C10.9677881,29.0410905 7.15290529,23.4968596 0,23.4968596 Z M19.404158,33.5612279 L33.7454794,33.5612279 L33.7454794,19.7183073 C29.9950842,19.6535904 26.3733768,21.0778252 23.6818304,23.6758329 C20.990284,26.2738405 19.4508347,29.8313978 19.404158,33.5612279 Z M0,0.00324412159 L0,16.782236 L0,16.782236 C7.97472846,16.782236 13.1085867,22.1650334 15.0971959,28.0573553 C17.1821917,20.369086 23.5437117,13.0087285 33.7454794,13.0087285 L33.7454794,0.00324412159 L0,0.00324412159 Z M13.7731474,16.0860541 C10.5119327,16.0860541 7.86819582,13.4570063 7.86819582,10.2139115 C7.86819582,6.9708166 10.5119327,4.34176878 13.7731474,4.34176878 C17.0343621,4.34176878 19.678099,6.9708166 19.678099,10.2139115 C19.678099,11.7713005 19.055972,13.264903 17.9485787,14.3661434 C16.8411855,15.4673837 15.339238,16.0860541 13.7731474,16.0860541 Z" id="Shape"></path>
            </g>
        </g>
    </g>
</svg>