<?xml version="1.0" encoding="UTF-8"?>
<svg width="12px" height="13px" viewBox="0 0 12 13" version="1.1" xmlns="http://www.w3.org/2000/svg" xmlns:xlink="http://www.w3.org/1999/xlink">
    <title>212A9968-F6CC-4A57-B1B5-B6FB92EE5CCC</title>
    <g id="Layout" stroke="none" stroke-width="1" fill="none" fill-rule="evenodd">
        <g id="BDIU---BDIU" transform="translate(-1126.000000, -1989.000000)" fill="#006982" fill-rule="nonzero">
            <g id="e/footer" transform="translate(-1.000000, 1712.000000)">
                <g id="Group-5" transform="translate(981.680556, 259.000000)">
                    <path d="M155.905713,23.5638353 L145.040108,23.5600638 C144.52243,23.5598841 144.102425,23.9798873 144.102604,24.4975619 C144.102784,25.0152365 144.523081,25.4355314 145.040759,25.4357111 L155.906364,25.4394825 L150.944188,30.4016285 C150.57762,30.7681948 150.577826,31.3618325 150.944649,31.7277081 C151.311471,32.0935837 151.905113,32.0947349 152.270736,31.7281684 L158.833219,25.1657256 C158.923218,25.0757265 158.990705,24.9716523 159.036628,24.8609986 C159.082549,24.7484766 159.106884,24.6293751 159.107813,24.5102874 C159.10869,24.3855508 159.085193,24.2608278 159.036379,24.1445143 C158.99038,24.0338287 158.922821,23.9297077 158.832758,23.8396461 L152.265719,17.272646 C151.898896,16.9058252 151.305254,16.9056192 150.939631,17.2721857 C150.574008,17.6387523 150.573269,18.2323896 150.940091,18.5982653 L155.905713,23.5638353 Z" id="Icon-Link-extern" transform="translate(151.605208, 24.500000) rotate(-45.000000) translate(-151.605208, -24.500000) "></path>
                </g>
            </g>
        </g>
    </g>
</svg>