<?xml version="1.0" encoding="UTF-8"?>
<svg width="18px" height="16px" viewBox="0 0 18 16" version="1.1" xmlns="http://www.w3.org/2000/svg" xmlns:xlink="http://www.w3.org/1999/xlink">
    <title>D18BE3D8-6B91-4EFE-91EF-CA465F1BCBF9</title>
    <g id="Layout" stroke="none" stroke-width="1" fill="none" fill-rule="evenodd">
        <g id="BDIU--COD-selcted" transform="translate(-211.000000, -1375.000000)" fill="#FFFFFF" fill-rule="nonzero">
            <g id="e/footer" transform="translate(-2.000694, 761.000000)">
                <path d="M224.746875,618.571429 C223.252156,618.571429 221.898171,619.169524 220.919219,620.133333 C219.940267,621.097143 219.334028,622.432 219.334028,623.904762 L219.334028,629.238095 C219.334028,629.658667 219.68045,630 220.107292,630 L223.200347,630 C223.627189,630 223.973611,629.658667 223.973611,629.238095 L223.973611,623.904762 C223.973611,623.694476 224.059443,623.504762 224.200177,623.366095 C224.340911,623.227429 224.533454,623.142857 224.746875,623.142857 C224.960296,623.142857 225.152839,623.227429 225.293573,623.366095 C225.434307,623.504762 225.520139,623.694476 225.520139,623.904762 L225.520139,629.238095 C225.520139,629.658667 225.866561,630 226.293403,630 L229.386458,630 C229.8133,630 230.159722,629.658667 230.159722,629.238095 L230.159722,623.904762 C230.159722,622.432 229.55271,621.097905 228.574531,620.133333 C227.596352,619.168762 226.241594,618.571429 224.746875,618.571429 Z M224.746875,620.095238 C225.814752,620.095238 226.780559,620.521143 227.481136,621.210667 C228.181713,621.90019 228.613194,622.852571 228.613194,623.904762 L228.613194,628.47619 L227.066667,628.47619 L227.066667,623.904762 C227.066667,623.273905 226.806077,622.700952 226.386968,622.288762 C225.967859,621.876571 225.387137,621.619048 224.746875,621.619048 C224.106612,621.619048 223.525118,621.87581 223.106782,622.288762 C222.688447,622.701714 222.427083,623.273905 222.427083,623.904762 L222.427083,628.47619 L220.880556,628.47619 L220.880556,623.904762 C220.880556,622.852571 221.31281,621.900952 222.012614,621.210667 C222.712418,620.520381 223.678998,620.095238 224.746875,620.095238 L224.746875,620.095238 Z M213.921181,619.333333 C213.494339,619.333333 213.147917,619.674667 213.147917,620.095238 L213.147917,629.238095 C213.147917,629.658667 213.494339,630 213.921181,630 L217.014236,630 C217.441078,630 217.7875,629.658667 217.7875,629.238095 L217.7875,620.095238 C217.7875,619.674667 217.441078,619.333333 217.014236,619.333333 L213.921181,619.333333 Z M214.694444,620.857143 L216.240972,620.857143 L216.240972,628.47619 L214.694444,628.47619 L214.694444,620.857143 Z M217.7875,616.285714 C217.7875,615.654857 217.52691,615.081905 217.107801,614.669714 C216.688692,614.257524 216.107971,614 215.467708,614 C214.827446,614 214.245951,614.256762 213.827616,614.669714 C213.40928,615.082667 213.147917,615.654857 213.147917,616.285714 C213.147917,616.916571 213.408507,617.489524 213.827616,617.901714 C214.246725,618.313905 214.827446,618.571429 215.467708,618.571429 C216.107971,618.571429 216.689465,618.314667 217.107801,617.901714 C217.526137,617.488762 217.7875,616.916571 217.7875,616.285714 Z M216.240972,616.285714 C216.240972,616.496 216.15514,616.685714 216.014406,616.824381 C215.873672,616.963048 215.681129,617.047619 215.467708,617.047619 C215.254287,617.047619 215.061745,616.963048 214.921011,616.824381 C214.780277,616.685714 214.694444,616.496 214.694444,616.285714 C214.694444,616.075429 214.780277,615.885714 214.921011,615.747048 C215.061745,615.608381 215.254287,615.52381 215.467708,615.52381 C215.681129,615.52381 215.873672,615.608381 216.014406,615.747048 C216.15514,615.885714 216.240972,616.075429 216.240972,616.285714 Z" id="linkedin"></path>
            </g>
        </g>
    </g>
</svg>