<?xml version="1.0" encoding="UTF-8"?>
<svg width="22px" height="17px" viewBox="0 0 22 17" version="1.1" xmlns="http://www.w3.org/2000/svg" xmlns:xlink="http://www.w3.org/1999/xlink">
    <title>89E82AAC-F2F0-4EC6-88F9-8D6A871BF8E2</title>
    <g id="Layout" stroke="none" stroke-width="1" fill="none" fill-rule="evenodd">
        <g id="BDIU--COD-selcted" transform="translate(-97.000000, -1375.000000)" fill="#FFFFFF" fill-rule="nonzero">
            <g id="e/footer" transform="translate(-2.000694, 761.000000)">
                <path d="M117.310271,616.789365 C117.147408,616.995655 116.967908,617.194273 116.770897,617.382662 C116.56688,617.580427 116.467061,617.865994 116.527478,618.156675 C116.559875,618.311819 116.580014,618.50106 116.58089,618.697121 C116.58089,623.177533 114.454037,626.344339 111.493606,627.986986 C109.175872,629.273315 106.294245,629.653502 103.418748,628.941716 C104.50888,628.633986 105.572744,628.156621 106.564808,627.501097 C106.693523,627.416705 106.803849,627.293954 106.873022,627.142221 C107.069158,626.711739 106.870395,626.207949 106.428213,626.017003 C103.999276,624.965947 102.811952,623.518508 102.252438,622.101757 C101.887309,621.177714 101.774356,620.228099 101.797122,619.35094 C101.81551,618.659613 101.917956,618.021137 102.040541,617.490921 C102.386406,617.782455 102.74453,618.09189 103.122793,618.374899 C104.918665,619.719193 107.171605,620.488944 109.59879,620.427569 C110.072494,620.414782 110.451633,620.038005 110.451633,619.575131 L110.451633,618.713317 C110.449881,618.56073 110.459513,618.408997 110.481403,618.258115 C110.580347,617.57105 110.92271,616.92064 111.49886,616.433046 C112.133676,615.895158 112.931355,615.659033 113.710646,615.711884 C114.489937,615.764735 115.245587,616.106562 115.798096,616.72458 C116.018749,616.968377 116.366366,617.079194 116.702599,616.983721 C116.904865,616.926607 117.108006,616.861822 117.311147,616.789365 L117.310271,616.789365 Z M118.703364,614.164709 C118.055414,614.609682 117.369813,614.954067 116.700848,615.191897 C115.885657,614.479259 114.869951,614.082023 113.832356,614.011271 C112.608255,613.928584 111.349131,614.300247 110.350062,615.146718 C109.442932,615.914764 108.903557,616.942804 108.747699,618.021137 C108.715302,618.247033 108.699541,618.475487 108.700416,618.703088 C107.017498,618.582041 105.46592,617.978516 104.190159,617.022933 C103.511563,616.51488 102.910895,615.907092 102.409172,615.220027 C102.128977,614.83643 101.582598,614.745219 101.188574,615.018 C101.053731,615.110915 100.954787,615.233666 100.895245,615.366647 C100.895245,615.366647 100.779665,615.621525 100.645697,616.014499 C100.547629,616.301771 100.434676,616.675138 100.333105,617.114144 C100.190381,617.729604 100.068671,618.479749 100.047657,619.305761 C100.020513,620.351702 100.15273,621.532328 100.618553,622.712102 C101.216594,624.225179 102.339999,625.67688 104.2497,626.823409 C102.875871,627.442279 101.408352,627.709092 99.9828618,627.647716 C99.4995261,627.627258 99.0906171,627.991248 99.0696025,628.461794 C99.0547172,628.793392 99.2359681,629.089188 99.5187895,629.244332 C103.813647,631.567224 108.64788,631.52716 112.360458,629.466818 C115.898791,627.505359 118.332106,623.755486 118.332106,618.697121 C118.33123,618.554763 118.325101,618.415816 118.311967,618.280278 C119.192829,617.32981 119.779486,616.209707 120.059681,615.057212 C120.170883,614.599453 119.879305,614.139989 119.409104,614.031729 C119.155178,613.972911 118.901251,614.029172 118.702488,614.164709 L118.703364,614.164709 Z" id="Twitter"></path>
            </g>
        </g>
    </g>
</svg>