<?xml version="1.0" encoding="UTF-8"?>
<svg width="18px" height="20px" viewBox="0 0 18 20" version="1.1" xmlns="http://www.w3.org/2000/svg" xmlns:xlink="http://www.w3.org/1999/xlink">
    <title>71DEA963-6A42-494E-871C-F12DD215E6F1</title>
    <g id="Layout" stroke="none" stroke-width="1" fill="none" fill-rule="evenodd">
        <g id="BDIU--COD-selcted" transform="translate(-153.000000, -1373.000000)" fill="#FFFFFF" fill-rule="nonzero">
            <g id="e/footer" transform="translate(-2.000694, 761.000000)">
                <path d="M171.68355,612 C171.855336,612 171.991984,612.066393 172.066165,612.183558 C172.140345,612.308533 172.136441,612.468658 172.058356,612.628783 L172.058356,612.628783 L165.674938,623.919547 C165.671034,623.927358 165.671034,623.931263 165.674938,623.939074 L165.674938,623.939074 L169.735339,631.371217 C169.817328,631.531342 169.821232,631.691467 169.743147,631.816442 C169.668967,631.933607 169.532319,632 169.360533,632 L169.360533,632 L166.47921,632 C166.038032,632 165.819395,631.703183 165.674938,631.449326 C165.674938,631.449326 161.591112,623.950791 161.5794,623.931263 C161.672005,623.765589 163.014787,621.383164 164.447965,618.84076 L164.779775,618.252147 C166.386178,615.40251 167.994052,612.550674 167.994052,612.550674 C168.150221,612.269479 168.337624,612 168.767089,612 L168.767089,612 Z M159.529678,615.948448 C159.974761,615.948448 160.189493,616.233548 160.33395,616.487405 C160.33395,616.487405 162.305587,619.924234 162.317299,619.943761 C162.200172,620.150752 159.205627,625.450498 159.205627,625.450498 C159.06117,625.716071 158.850342,626.008983 158.420877,626.008983 L158.420877,626.008983 L155.539554,626.008983 C155.367768,626.008983 155.238928,625.930873 155.164748,625.813708 C155.090567,625.692638 155.086663,625.532513 155.164748,625.372388 L155.164748,625.372388 L158.225665,619.959383 C158.229569,619.955477 158.229569,619.951572 158.225665,619.943761 L158.225665,619.943761 L156.277454,616.56942 C156.199369,616.409295 156.187656,616.253076 156.261837,616.1281 C156.336017,616.010935 156.484378,615.948448 156.656164,615.948448 L156.656164,615.948448 Z" id="xing"></path>
            </g>
        </g>
    </g>
</svg>